<svg data-v-423bf9ae="" xmlns="http://www.w3.org/2000/svg" viewBox="0 0 696 90" class="iconLeftSlogan"><!----><!----><!----><g data-v-423bf9ae="" id="71e61728-99e9-45b0-b98c-38dd1450f230" fill="white" transform="matrix(3.4149118407597263,0,0,3.4149118407597263,188.10776431100354,-8.40068230486316)"><path d="M5.77 10.75L5.77 10.75L4.42 10.74L4.42 10.74Q3.81 10.74 3.49 10.75L3.49 10.75L3.49 10.75Q3.28 12.61 3.26 13.94L3.26 13.94L3.26 13.94Q6.55 13.94 8.15 13.41L8.15 13.41L8.15 13.41Q8.02 14.45 7.52 15.02L7.52 15.02L7.52 15.02Q7.01 15.60 6.26 15.60L6.26 15.60L6.26 15.60Q6.03 15.60 5.00 15.48L5.00 15.48L5.00 15.48Q3.98 15.36 2.83 15.36L2.83 15.36L2.83 15.36Q1.68 15.36 0.59 15.60L0.59 15.60L0.59 15.60Q0.74 14.94 1.26 14.52L1.26 14.52L1.26 14.46L1.26 14.46Q1.26 13.71 1.65 11.02L1.65 11.02L1.65 11.02Q1.30 11.14 1.05 11.24L1.05 11.24L1.05 11.24Q1.02 10.93 1.02 10.78L1.02 10.78L1.02 10.78Q1.02 9.84 1.85 9.59L1.85 9.59L1.85 9.59Q2.10 7.74 2.18 6.26L2.18 6.26L2.18 6.26Q1.67 6.23 1.53 6.02L1.53 6.02L1.53 6.02Q1.39 5.81 1.39 5.19L1.39 5.19L1.39 5.19Q1.43 4.56 1.50 4.37L1.50 4.37L1.50 4.37Q3.07 4.58 4.96 4.58L4.96 4.58L4.96 4.58Q6.86 4.58 8.62 4.24L8.62 4.24L8.62 4.24Q8.43 5.71 6.83 6.01L6.83 6.01L6.83 6.01Q5.89 6.19 4.05 6.24L4.05 6.24L4.05 6.24Q4.03 6.40 3.64 9.49L3.64 9.49L3.64 9.49Q4.48 9.52 4.80 9.52L4.80 9.52L4.80 9.52Q6.13 9.52 6.69 9.06L6.69 9.06L6.69 9.06Q6.72 9.34 6.72 9.48L6.72 9.48L6.72 9.48Q6.72 10.75 5.77 10.75ZM11.44 12.78L11.44 12.78L11.44 12.78Q11.44 13.44 11.68 13.85L11.68 13.85L11.68 13.85Q11.93 14.27 12.38 14.27L12.38 14.27L12.38 14.27Q13.03 14.27 13.63 13.50L13.63 13.50L13.63 13.50Q14.22 12.73 14.58 11.52L14.58 11.52L14.58 11.52Q14.94 10.32 14.94 9.23L14.94 9.23L14.94 9.23Q14.94 8.15 14.85 7.48L14.85 7.48L14.85 7.48Q15.27 7.45 15.44 7.45L15.44 7.45L15.44 7.45Q16.16 7.45 16.52 7.71L16.52 7.71L16.52 7.71Q16.88 7.98 16.88 8.67L16.88 8.67L16.88 8.67Q16.88 8.93 16.55 10.83L16.55 10.83L16.55 10.83Q16.21 12.73 16.21 13.87L16.21 13.87L16.21 13.87Q16.21 15.01 16.65 15.89L16.65 15.89L16.65 15.89Q15.60 15.71 15.11 15.11L15.11 15.11L15.11 15.11Q14.62 14.52 14.62 13.40L14.62 13.40L14.62 13.40Q14.62 13.20 14.67 12.64L14.67 12.64L14.67 12.64Q14.29 13.97 13.33 14.78L13.33 14.78L13.33 14.78Q12.36 15.60 11.43 15.60L11.43 15.60L11.43 15.60Q10.50 15.60 9.93 14.90L9.93 14.90L9.93 14.90Q9.37 14.21 9.37 12.94L9.37 12.94L9.37 12.94Q9.37 11.66 9.82 10.46L9.82 10.46L9.82 10.46Q10.28 9.27 11.19 8.44L11.19 8.44L11.19 8.44Q12.10 7.60 13.22 7.60L13.22 7.60L13.22 7.60Q13.86 7.60 14.53 7.91L14.53 7.91L14.53 7.91Q13.12 8.41 12.28 9.89L12.28 9.89L12.28 9.89Q11.44 11.37 11.44 12.78ZM22.92 7.49L22.92 7.49L22.92 7.49Q23.18 7.49 23.32 7.52L23.32 7.52L23.32 7.52Q23.69 7.59 23.72 8.04L23.72 8.04L23.72 8.04Q22.19 8.36 21.29 9.69L21.29 9.69L21.29 9.69Q20.38 11.02 20.38 12.46L20.38 12.46L20.38 12.46Q20.38 14.14 21.41 14.14L21.41 14.14L21.41 14.14Q22.02 14.14 22.51 13.47L22.51 13.47L22.51 13.47Q23.38 12.25 23.73 9.66L23.73 9.66L23.73 9.66Q24.00 7.62 24.72 7.03L24.72 7.03L24.72 7.03Q25.07 6.73 25.59 6.57L25.59 6.57L25.59 6.57Q25.40 8.05 25.40 8.81L25.40 8.81L25.40 8.81Q25.40 14.41 24.20 17.22L24.20 17.22L24.20 17.22Q23.00 20.03 20.30 20.03L20.30 20.03L20.30 20.03Q19.21 20.03 18.59 19.45L18.59 19.45L18.59 19.45Q17.98 18.87 17.98 18.18L17.98 18.18L17.98 18.18Q17.98 17.49 18.41 17.05L18.41 17.05L18.41 17.05Q18.84 16.60 19.63 16.60L19.63 16.60L19.63 16.60Q19.95 16.60 20.29 16.74L20.29 16.74L20.29 16.74Q19.75 17.09 19.75 17.82L19.75 17.82L19.75 17.82Q19.75 18.31 20.05 18.67L20.05 18.67L20.05 18.67Q20.34 19.03 20.77 19.03L20.77 19.03L20.77 19.03Q21.20 19.03 21.52 18.85L21.52 18.85L21.52 18.85Q21.84 18.68 22.18 18.23L22.18 18.23L22.18 18.23Q22.51 17.78 22.76 17.11L22.76 17.11L22.76 17.11Q23.34 15.55 23.39 12.87L23.39 12.87L23.39 12.87Q22.99 14.07 22.16 14.80L22.16 14.80L22.16 14.80Q21.34 15.53 20.48 15.53L20.48 15.53L20.48 15.53Q19.40 15.53 18.84 14.71L18.84 14.71L18.84 14.71Q18.27 13.89 18.27 12.61L18.27 12.61L18.27 12.61Q18.27 11.13 18.98 9.86L18.98 9.86L18.98 9.86Q19.78 8.39 21.20 7.81L21.20 7.81L21.20 7.81Q21.98 7.49 22.92 7.49ZM27.58 15.08L27.58 15.08Q27.41 14.80 27.37 14.54L27.37 14.54L27.37 14.54Q27.33 14.28 27.33 13.73L27.33 13.73L27.33 13.73Q27.33 13.19 27.80 9.44L27.80 9.44L27.80 9.44Q28.27 5.68 28.27 4.28L28.27 4.28L28.27 4.28Q28.27 2.88 28.10 2.46L28.10 2.46L28.10 2.46Q29.15 2.74 29.53 3.31L29.53 3.31L29.53 3.31Q29.92 3.88 29.92 4.91L29.92 4.91L29.92 4.91Q29.92 5.53 29.51 8.92L29.51 8.92L29.51 8.92Q29.11 12.31 29.11 14.38L29.11 14.38L29.11 14.38Q29.11 14.83 29.16 15.64L29.16 15.64L29.16 15.64Q27.89 15.58 27.58 15.08L27.58 15.08ZM34.65 11.98L34.65 11.98L34.65 11.98Q33.98 11.98 33.33 11.83L33.33 11.83L33.33 11.83Q33.32 11.97 33.32 12.26L33.32 12.26L33.32 12.26Q33.32 13.43 33.75 14.01L33.75 14.01L33.75 14.01Q34.19 14.60 34.79 14.60L34.79 14.60L34.79 14.60Q35.39 14.60 35.94 14.24L35.94 14.24L35.94 14.24Q36.48 13.87 36.89 13.23L36.89 13.23L36.89 13.23Q37.39 13.34 37.39 13.75L37.39 13.75L37.39 13.75Q36.16 15.64 34.22 15.64L34.22 15.64L34.22 15.64Q33.04 15.64 32.16 14.74L32.16 14.74L32.16 14.74Q31.28 13.83 31.28 12.22L31.28 12.22L31.28 12.22Q31.28 11.02 31.74 9.93L31.74 9.93L31.74 9.93Q32.20 8.85 33.21 8.10L33.21 8.10L33.21 8.10Q34.22 7.35 35.44 7.35L35.44 7.35L35.44 7.35Q36.67 7.35 37.24 7.91L37.24 7.91L37.24 7.91Q37.81 8.47 37.81 9.38L37.81 9.38L37.81 9.38Q37.81 10.70 36.90 11.34L36.90 11.34L36.90 11.34Q35.98 11.98 34.65 11.98ZM35.24 8.22L35.24 8.22L35.24 8.22Q34.52 8.22 34.03 9.10L34.03 9.10L34.03 9.10Q33.54 9.98 33.39 11.24L33.39 11.24L33.60 11.24L33.60 11.24Q34.82 11.24 35.40 10.61L35.40 10.61L35.40 10.61Q35.98 9.98 35.98 9.10L35.98 9.10L35.98 9.10Q35.98 8.74 35.79 8.48L35.79 8.48L35.79 8.48Q35.60 8.22 35.24 8.22ZM47.73 5.10L47.73 5.10L47.73 5.10Q47.10 5.10 46.68 5.48L46.68 5.48L46.68 5.48Q46.26 5.87 46.26 6.57L46.26 6.57L46.26 6.57Q46.26 7.27 46.61 7.82L46.61 7.82L46.61 7.82Q46.97 8.37 47.49 8.76L47.49 8.76L47.49 8.76Q48.02 9.14 48.64 9.59L48.64 9.59L48.64 9.59Q49.27 10.04 49.79 10.44L49.79 10.44L49.79 10.44Q50.32 10.84 50.67 11.42L50.67 11.42L50.67 11.42Q51.03 12.01 51.03 12.67L51.03 12.67L51.03 12.67Q51.03 13.97 49.97 14.88L49.97 14.88L49.97 14.88Q48.90 15.78 47.17 15.78L47.17 15.78L47.17 15.78Q45.44 15.78 44.44 15.04L44.44 15.04L44.44 15.04Q43.43 14.29 43.43 13.36L43.43 13.36L43.43 13.36Q43.43 12.42 43.99 11.89L43.99 11.89L43.99 11.89Q44.55 11.37 45.43 11.37L45.43 11.37L45.43 11.37Q45.68 11.37 45.91 11.42L45.91 11.42L45.91 11.42Q45.47 12.07 45.47 12.82L45.47 12.82L45.47 12.82Q45.47 13.57 45.93 14.11L45.93 14.11L45.93 14.11Q46.40 14.64 47.16 14.64L47.16 14.64L47.16 14.64Q47.92 14.64 48.44 14.25L48.44 14.25L48.44 14.25Q48.96 13.85 48.96 13.22L48.96 13.22L48.96 13.22Q48.96 12.60 48.61 12.12L48.61 12.12L48.61 12.12Q48.26 11.65 47.74 11.30L47.74 11.30L47.74 11.30Q47.22 10.96 46.61 10.52L46.61 10.52L46.61 10.52Q45.99 10.08 45.47 9.63L45.47 9.63L45.47 9.63Q44.95 9.18 44.60 8.49L44.60 8.49L44.60 8.49Q44.25 7.80 44.25 6.97L44.25 6.97L44.25 6.97Q44.25 5.64 45.22 4.85L45.22 4.85L45.22 4.85Q46.19 4.06 47.82 4.06L47.82 4.06L47.82 4.06Q49.46 4.06 50.31 4.79L50.31 4.79L50.31 4.79Q51.16 5.53 51.16 6.36L51.16 6.36L51.16 6.36Q51.16 7.20 50.62 7.76L50.62 7.76L50.62 7.76Q50.09 8.33 49.18 8.33L49.18 8.33L49.18 8.33Q48.87 8.33 48.58 8.27L48.58 8.27L48.58 8.27Q49.27 7.55 49.27 6.74L49.27 6.74L49.27 6.74Q49.27 5.94 48.82 5.52L48.82 5.52L48.82 5.52Q48.37 5.10 47.73 5.10ZM55.41 10.60L55.41 10.60L55.41 10.60Q55.19 11.84 55.06 12.81L55.06 12.81L55.06 12.81Q54.94 13.78 54.94 14.78L54.94 14.78L54.94 14.78Q54.94 15.79 55.13 16.23L55.13 16.23L55.13 16.23Q54.05 15.95 53.65 15.37L53.65 15.37L53.65 15.37Q53.24 14.78 53.24 13.72L53.24 13.72L53.24 13.72Q53.24 12.78 53.54 11.15L53.54 11.15L53.54 11.15Q53.83 9.52 53.91 8.95L53.91 8.95L53.91 8.95Q53.19 9.07 52.36 9.44L52.36 9.44L52.36 9.44Q52.33 9.13 52.33 8.97L52.33 8.97L52.33 8.97Q52.33 8.23 52.78 7.96L52.78 7.96L52.78 7.96Q53.23 7.69 54.07 7.67L54.07 7.67L54.07 7.67Q54.17 6.62 54.17 6.16L54.17 6.16L54.17 6.16Q54.17 5.70 54.16 5.39L54.16 5.39L54.16 5.39Q54.15 5.08 54.15 4.93L54.15 4.93L54.15 4.93Q55.08 5.03 55.50 5.48L55.50 5.48L55.50 5.48Q55.92 5.94 55.92 6.78L55.92 6.78L55.92 6.78Q55.92 7.11 55.85 7.71L55.85 7.71L55.85 7.71Q57.02 7.69 57.57 7.25L57.57 7.25L57.57 7.25Q57.60 7.53 57.60 7.67L57.60 7.67L57.60 7.67Q57.60 8.34 57.36 8.60L57.36 8.60L57.36 8.60Q57.12 8.86 56.56 8.86L56.56 8.86L56.56 8.86Q56 8.86 55.71 8.85L55.71 8.85L55.71 8.85Q55.64 9.35 55.41 10.60ZM59.85 12.78L59.85 12.78L59.85 12.78Q59.85 13.44 60.09 13.85L60.09 13.85L60.09 13.85Q60.34 14.27 60.79 14.27L60.79 14.27L60.79 14.27Q61.45 14.27 62.04 13.50L62.04 13.50L62.04 13.50Q62.64 12.73 62.99 11.52L62.99 11.52L62.99 11.52Q63.35 10.32 63.35 9.23L63.35 9.23L63.35 9.23Q63.35 8.15 63.27 7.48L63.27 7.48L63.27 7.48Q63.69 7.45 63.85 7.45L63.85 7.45L63.85 7.45Q64.57 7.45 64.93 7.71L64.93 7.71L64.93 7.71Q65.30 7.98 65.30 8.67L65.30 8.67L65.30 8.67Q65.30 8.93 64.96 10.83L64.96 10.83L64.96 10.83Q64.62 12.73 64.62 13.87L64.62 13.87L64.62 13.87Q64.62 15.01 65.06 15.89L65.06 15.89L65.06 15.89Q64.01 15.71 63.52 15.11L63.52 15.11L63.52 15.11Q63.03 14.52 63.03 13.40L63.03 13.40L63.03 13.40Q63.03 13.20 63.08 12.64L63.08 12.64L63.08 12.64Q62.71 13.97 61.74 14.78L61.74 14.78L61.74 14.78Q60.77 15.60 59.84 15.60L59.84 15.60L59.84 15.60Q58.91 15.60 58.34 14.90L58.34 14.90L58.34 14.90Q57.78 14.21 57.78 12.94L57.78 12.94L57.78 12.94Q57.78 11.66 58.23 10.46L58.23 10.46L58.23 10.46Q58.69 9.27 59.60 8.44L59.60 8.44L59.60 8.44Q60.51 7.60 61.63 7.60L61.63 7.60L61.63 7.60Q62.27 7.60 62.94 7.91L62.94 7.91L62.94 7.91Q61.53 8.41 60.69 9.89L60.69 9.89L60.69 9.89Q59.85 11.37 59.85 12.78ZM69.17 10.88L69.17 10.88Q69.68 9.06 70.38 8.20L70.38 8.20L70.38 8.20Q71.09 7.34 71.70 7.34L71.70 7.34L71.70 7.34Q72.31 7.34 72.62 7.79L72.62 7.79L72.62 7.79Q72.93 8.25 72.93 8.97L72.93 8.97L72.93 8.97Q72.93 9.69 72.50 10.29L72.50 10.29L72.50 10.29Q72.07 10.89 71.33 10.89L71.33 10.89L71.33 10.89Q71.13 10.89 70.87 10.78L70.87 10.78L70.87 10.78Q71.30 10.23 71.30 9.46L71.30 9.46L71.30 9.46Q71.30 9.02 70.94 9.02L70.94 9.02L70.94 9.02Q70.67 9.02 70.36 9.39L70.36 9.39L70.36 9.39Q70.06 9.76 69.78 10.41L69.78 10.41L69.78 10.41Q69.50 11.06 69.31 12.08L69.31 12.08L69.31 12.08Q69.12 13.09 69.12 14.24L69.12 14.24L69.12 14.24Q69.12 14.38 69.19 15.43L69.19 15.43L69.19 15.43Q68.74 15.46 68.61 15.46L68.61 15.46L68.61 15.46Q67.82 15.46 67.47 15.18L67.47 15.18L67.47 15.18Q67.12 14.90 67.12 14.25L67.12 14.25L67.12 14.25Q67.12 13.97 67.41 12.10L67.41 12.10L67.41 12.10Q67.70 10.22 67.70 9.11L67.70 9.11L67.70 9.11Q67.70 7.99 67.47 7.06L67.47 7.06L67.47 7.06Q68.49 7.38 68.89 7.97L68.89 7.97L68.89 7.97Q69.30 8.57 69.30 9.36L69.30 9.36L69.30 9.36Q69.30 10.15 69.17 10.88L69.17 10.88ZM79.86 15.67L79.86 15.67Q79.06 15.67 78.71 15.39L78.71 15.39L78.71 15.39Q78.36 15.11 78.36 14.45L78.36 14.45L78.36 14.45Q78.36 13.79 78.83 10.46L78.83 10.46L78.83 10.46Q79.30 7.14 79.30 5.72L79.30 5.72L79.30 5.72Q79.30 4.30 79.10 3.86L79.10 3.86L79.10 3.86Q80.53 3.98 80.98 4.98L80.98 4.98L80.98 4.98Q82.05 4.40 83.35 4.40L83.35 4.40L83.35 4.40Q84.64 4.40 85.39 5.20L85.39 5.20L85.39 5.20Q86.14 6.01 86.14 7.18L86.14 7.18L86.14 7.18Q86.14 8.64 85.08 9.81L85.08 9.81L85.08 9.81Q84.56 10.37 83.74 10.72L83.74 10.72L83.74 10.72Q82.92 11.07 81.93 11.07L81.93 11.07L81.93 11.07Q81.51 11.07 81.13 11.02L81.13 11.02L81.09 10.43L81.09 10.43Q81.14 10.43 81.20 10.43L81.20 10.43L81.20 10.43Q82.78 10.43 83.72 9.25L83.72 9.25L83.72 9.25Q84.36 8.41 84.36 7.49L84.36 7.49L84.36 7.49Q84.36 6.13 83.26 5.70L83.26 5.70L83.26 5.70Q82.32 5.35 81.16 5.84L81.16 5.84L81.16 5.87L81.16 5.87Q81.16 6.40 80.76 9.35L80.76 9.35L80.76 9.35Q80.36 12.29 80.36 14.27L80.36 14.27L80.36 14.27Q80.36 15.15 80.44 15.64L80.44 15.64L80.44 15.64Q80.00 15.67 79.86 15.67L79.86 15.67ZM88.97 10.88L88.97 10.88Q89.47 9.06 90.18 8.20L90.18 8.20L90.18 8.20Q90.89 7.34 91.50 7.34L91.50 7.34L91.50 7.34Q92.11 7.34 92.41 7.79L92.41 7.79L92.41 7.79Q92.72 8.25 92.72 8.97L92.72 8.97L92.72 8.97Q92.72 9.69 92.30 10.29L92.30 10.29L92.30 10.29Q91.87 10.89 91.13 10.89L91.13 10.89L91.13 10.89Q90.93 10.89 90.66 10.78L90.66 10.78L90.66 10.78Q91.10 10.23 91.10 9.46L91.10 9.46L91.10 9.46Q91.10 9.02 90.73 9.02L90.73 9.02L90.73 9.02Q90.47 9.02 90.16 9.39L90.16 9.39L90.16 9.39Q89.85 9.76 89.57 10.41L89.57 10.41L89.57 10.41Q89.29 11.06 89.10 12.08L89.10 12.08L89.10 12.08Q88.91 13.09 88.91 14.24L88.91 14.24L88.91 14.24Q88.91 14.38 88.98 15.43L88.98 15.43L88.98 15.43Q88.54 15.46 88.41 15.46L88.41 15.46L88.41 15.46Q87.61 15.46 87.26 15.18L87.26 15.18L87.26 15.18Q86.91 14.90 86.91 14.25L86.91 14.25L86.91 14.25Q86.91 13.97 87.21 12.10L87.21 12.10L87.21 12.10Q87.50 10.22 87.50 9.11L87.50 9.11L87.50 9.11Q87.50 7.99 87.26 7.06L87.26 7.06L87.26 7.06Q88.28 7.38 88.69 7.97L88.69 7.97L88.69 7.97Q89.10 8.57 89.10 9.36L89.10 9.36L89.10 9.36Q89.10 10.15 88.97 10.88L88.97 10.88ZM97.47 8.41L97.47 8.41L97.47 8.41Q96.56 8.41 95.84 9.64L95.84 9.64L95.84 9.64Q95.13 10.86 95.13 12.08L95.13 12.08L95.13 12.08Q95.13 14.63 96.45 14.63L96.45 14.63L96.45 14.63Q97.38 14.63 97.97 13.41L97.97 13.41L97.97 13.41Q98.56 12.18 98.56 10.65L98.56 10.65L98.56 10.65Q98.56 8.41 97.47 8.41ZM98.34 7.39L98.34 7.39L98.34 7.39Q99.18 7.39 99.76 8.22L99.76 8.22L99.76 8.22Q100.35 9.04 100.35 10.43L100.35 10.43L100.35 10.43Q100.35 11.98 99.72 13.29L99.72 13.29L99.72 13.29Q99.02 14.76 97.73 15.32L97.73 15.32L97.73 15.32Q97.01 15.64 96.14 15.64L96.14 15.64L96.14 15.64Q94.92 15.64 94.02 14.69L94.02 14.69L94.02 14.69Q93.11 13.75 93.11 11.98L93.11 11.98L93.11 11.98Q93.11 10.21 93.98 8.86L93.98 8.86L93.98 8.86Q94.85 7.50 96.28 7.15L96.28 7.15L96.28 7.15Q96.43 7.15 96.56 7.25L96.56 7.25L96.56 7.25Q96.70 7.34 96.70 7.43L96.70 7.43L96.70 7.43Q95.28 8.41 95.00 10.16L95.00 10.16L95.00 10.16Q95.30 9.38 95.72 8.81L95.72 8.81L95.72 8.81Q96.15 8.23 96.61 7.94L96.61 7.94L96.61 7.94Q97.50 7.39 98.34 7.39ZM105.68 8.36L105.68 8.36L105.68 8.36Q106.57 7.69 107.44 7.69L107.44 7.69L107.44 7.69Q108.30 7.69 108.87 8.38L108.87 8.38L108.87 8.38Q109.44 9.07 109.44 10.39L109.44 10.39L109.44 10.39Q109.44 12.49 108.29 13.96L108.29 13.96L108.29 13.96Q107.14 15.43 105.53 15.43L105.53 15.43L105.53 15.43Q104.96 15.43 104.37 15.20L104.37 15.20L104.37 15.20Q105.74 14.88 106.55 13.43L106.55 13.43L106.55 13.43Q107.37 11.97 107.37 10.53L107.37 10.53L107.37 10.53Q107.37 9.86 107.12 9.44L107.12 9.44L107.12 9.44Q106.88 9.02 106.43 9.02L106.43 9.02L106.43 9.02Q105.57 9.02 104.92 10.05L104.92 10.05L104.92 10.05Q104.26 11.09 103.91 12.89L103.91 12.89L103.91 12.89Q103.56 14.69 103.56 16.64L103.56 16.64L103.56 16.64Q103.56 18.59 103.84 20.03L103.84 20.03L103.84 20.03Q102.69 19.99 102.14 19.66L102.14 19.66L102.14 19.66Q101.58 19.33 101.58 18.41L101.58 18.41L101.58 18.41Q101.58 18.07 102.01 14.86L102.01 14.86L102.01 14.86Q102.44 11.65 102.44 9.91L102.44 9.91L102.44 9.91Q102.44 8.18 102.23 6.99L102.23 6.99L102.23 6.99Q103.35 7.27 103.78 8.02L103.78 8.02L103.78 8.02Q104.20 8.78 104.20 10.23L104.20 10.23L104.20 10.23Q104.79 9.03 105.68 8.36ZM114.21 11.98L114.21 11.98L114.21 11.98Q113.54 11.98 112.90 11.83L112.90 11.83L112.90 11.83Q112.88 11.97 112.88 12.26L112.88 12.26L112.88 12.26Q112.88 13.43 113.32 14.01L113.32 14.01L113.32 14.01Q113.75 14.60 114.35 14.60L114.35 14.60L114.35 14.60Q114.95 14.60 115.50 14.24L115.50 14.24L115.50 14.24Q116.05 13.87 116.45 13.23L116.45 13.23L116.45 13.23Q116.96 13.34 116.96 13.75L116.96 13.75L116.96 13.75Q115.72 15.64 113.78 15.64L113.78 15.64L113.78 15.64Q112.60 15.64 111.72 14.74L111.72 14.74L111.72 14.74Q110.84 13.83 110.84 12.22L110.84 12.22L110.84 12.22Q110.84 11.02 111.30 9.93L111.30 9.93L111.30 9.93Q111.76 8.85 112.77 8.10L112.77 8.10L112.77 8.10Q113.78 7.35 115.00 7.35L115.00 7.35L115.00 7.35Q116.23 7.35 116.80 7.91L116.80 7.91L116.80 7.91Q117.38 8.47 117.38 9.38L117.38 9.38L117.38 9.38Q117.38 10.70 116.46 11.34L116.46 11.34L116.46 11.34Q115.54 11.98 114.21 11.98ZM114.80 8.22L114.80 8.22L114.80 8.22Q114.09 8.22 113.60 9.10L113.60 9.10L113.60 9.10Q113.11 9.98 112.95 11.24L112.95 11.24L113.16 11.24L113.16 11.24Q114.38 11.24 114.96 10.61L114.96 10.61L114.96 10.61Q115.54 9.98 115.54 9.10L115.54 9.10L115.54 9.10Q115.54 8.74 115.35 8.48L115.35 8.48L115.35 8.48Q115.16 8.22 114.80 8.22ZM121.02 10.88L121.02 10.88Q121.52 9.06 122.23 8.20L122.23 8.20L122.23 8.20Q122.93 7.34 123.54 7.34L123.54 7.34L123.54 7.34Q124.15 7.34 124.46 7.79L124.46 7.79L124.46 7.79Q124.77 8.25 124.77 8.97L124.77 8.97L124.77 8.97Q124.77 9.69 124.34 10.29L124.34 10.29L124.34 10.29Q123.91 10.89 123.17 10.89L123.17 10.89L123.17 10.89Q122.98 10.89 122.71 10.78L122.71 10.78L122.71 10.78Q123.14 10.23 123.14 9.46L123.14 9.46L123.14 9.46Q123.14 9.02 122.78 9.02L122.78 9.02L122.78 9.02Q122.51 9.02 122.21 9.39L122.21 9.39L122.21 9.39Q121.90 9.76 121.62 10.41L121.62 10.41L121.62 10.41Q121.34 11.06 121.15 12.08L121.15 12.08L121.15 12.08Q120.96 13.09 120.96 14.24L120.96 14.24L120.96 14.24Q120.96 14.38 121.03 15.43L121.03 15.43L121.03 15.43Q120.58 15.46 120.46 15.46L120.46 15.46L120.46 15.46Q119.66 15.46 119.31 15.18L119.31 15.18L119.31 15.18Q118.96 14.90 118.96 14.25L118.96 14.25L118.96 14.25Q118.96 13.97 119.25 12.10L119.25 12.10L119.25 12.10Q119.55 10.22 119.55 9.11L119.55 9.11L119.55 9.11Q119.55 7.99 119.31 7.06L119.31 7.06L119.31 7.06Q120.33 7.38 120.74 7.97L120.74 7.97L120.74 7.97Q121.14 8.57 121.14 9.36L121.14 9.36L121.14 9.36Q121.14 10.15 121.02 10.88L121.02 10.88ZM128.03 10.60L128.03 10.60L128.03 10.60Q127.81 11.84 127.68 12.81L127.68 12.81L127.68 12.81Q127.55 13.78 127.55 14.78L127.55 14.78L127.55 14.78Q127.55 15.79 127.75 16.23L127.75 16.23L127.75 16.23Q126.67 15.95 126.27 15.37L126.27 15.37L126.27 15.37Q125.86 14.78 125.86 13.72L125.86 13.72L125.86 13.72Q125.86 12.78 126.15 11.15L126.15 11.15L126.15 11.15Q126.45 9.52 126.53 8.95L126.53 8.95L126.53 8.95Q125.80 9.07 124.98 9.44L124.98 9.44L124.98 9.44Q124.95 9.13 124.95 8.97L124.95 8.97L124.95 8.97Q124.95 8.23 125.40 7.96L125.40 7.96L125.40 7.96Q125.85 7.69 126.69 7.67L126.69 7.67L126.69 7.67Q126.78 6.62 126.78 6.16L126.78 6.16L126.78 6.16Q126.78 5.70 126.78 5.39L126.78 5.39L126.78 5.39Q126.77 5.08 126.77 4.93L126.77 4.93L126.77 4.93Q127.69 5.03 128.11 5.48L128.11 5.48L128.11 5.48Q128.53 5.94 128.53 6.78L128.53 6.78L128.53 6.78Q128.53 7.11 128.46 7.71L128.46 7.71L128.46 7.71Q129.64 7.69 130.19 7.25L130.19 7.25L130.19 7.25Q130.21 7.53 130.21 7.67L130.21 7.67L130.21 7.67Q130.21 8.34 129.98 8.60L129.98 8.60L129.98 8.60Q129.74 8.86 129.18 8.86L129.18 8.86L129.18 8.86Q128.62 8.86 128.32 8.85L128.32 8.85L128.32 8.85Q128.25 9.35 128.03 10.60ZM131.08 13.13L131.08 13.13L131.08 13.13Q131.08 12.54 131.31 11.00L131.31 11.00L131.31 11.00Q131.53 9.46 131.53 8.61L131.53 8.61L131.53 8.61Q131.53 7.76 131.45 7.29L131.45 7.29L131.45 7.29Q131.75 7.27 132.02 7.27L132.02 7.27L132.02 7.27Q132.83 7.27 133.15 7.54L133.15 7.54L133.15 7.54Q133.46 7.81 133.46 8.47L133.46 8.47L133.46 8.47Q133.46 8.68 133.12 10.68L133.12 10.68L133.12 10.68Q132.78 12.67 132.77 13.96L132.77 13.96L132.77 13.96Q132.76 15.26 132.93 15.64L132.93 15.64L132.93 15.64Q131.84 15.36 131.46 14.79L131.46 14.79L131.46 14.79Q131.08 14.22 131.08 13.13ZM132.99 6.09L132.99 6.09L132.99 6.09Q131.54 6.09 131.54 5.08L131.54 5.08L131.54 5.08Q131.54 4.72 131.75 4.09L131.75 4.09L131.75 4.09Q132.15 4.03 132.44 4.03L132.44 4.03L132.44 4.03Q133.88 4.03 133.88 5.04L133.88 5.04L133.88 5.04Q133.88 5.40 133.67 6.03L133.67 6.03L133.67 6.03Q133.28 6.09 132.99 6.09ZM138.43 11.98L138.43 11.98L138.43 11.98Q137.76 11.98 137.12 11.83L137.12 11.83L137.12 11.83Q137.10 11.97 137.10 12.26L137.10 12.26L137.10 12.26Q137.10 13.43 137.54 14.01L137.54 14.01L137.54 14.01Q137.97 14.60 138.57 14.60L138.57 14.60L138.57 14.60Q139.17 14.60 139.72 14.24L139.72 14.24L139.72 14.24Q140.27 13.87 140.67 13.23L140.67 13.23L140.67 13.23Q141.18 13.34 141.18 13.75L141.18 13.75L141.18 13.75Q139.94 15.64 138.00 15.64L138.00 15.64L138.00 15.64Q136.82 15.64 135.94 14.74L135.94 14.74L135.94 14.74Q135.06 13.83 135.06 12.22L135.06 12.22L135.06 12.22Q135.06 11.02 135.52 9.93L135.52 9.93L135.52 9.93Q135.98 8.85 136.99 8.10L136.99 8.10L136.99 8.10Q138.00 7.35 139.22 7.35L139.22 7.35L139.22 7.35Q140.45 7.35 141.02 7.91L141.02 7.91L141.02 7.91Q141.60 8.47 141.60 9.38L141.60 9.38L141.60 9.38Q141.60 10.70 140.68 11.34L140.68 11.34L140.68 11.34Q139.76 11.98 138.43 11.98ZM139.02 8.22L139.02 8.22L139.02 8.22Q138.31 8.22 137.82 9.10L137.82 9.10L137.82 9.10Q137.33 9.98 137.17 11.24L137.17 11.24L137.38 11.24L137.38 11.24Q138.60 11.24 139.18 10.61L139.18 10.61L139.18 10.61Q139.76 9.98 139.76 9.10L139.76 9.10L139.76 9.10Q139.76 8.74 139.57 8.48L139.57 8.48L139.57 8.48Q139.38 8.22 139.02 8.22ZM146.17 8.18L146.17 8.18L146.17 8.18Q145.78 8.18 145.47 8.44L145.47 8.44L145.47 8.44Q145.17 8.69 145.17 9.17L145.17 9.17L145.17 9.17Q145.17 9.65 145.50 10.07L145.50 10.07L145.50 10.07Q145.82 10.49 146.30 10.80L146.30 10.80L146.30 10.80Q146.78 11.12 147.26 11.45L147.26 11.45L147.26 11.45Q147.74 11.77 148.11 12.26L148.11 12.26L148.11 12.26Q148.47 12.74 148.51 13.33L148.51 13.33L148.51 13.33Q148.51 14.34 147.64 15.02L147.64 15.02L147.64 15.02Q146.78 15.71 145.49 15.71L145.49 15.71L145.49 15.71Q144.20 15.71 143.47 15.19L143.47 15.19L143.47 15.19Q142.73 14.67 142.73 14L142.73 14L142.73 14Q142.73 13.33 143.14 12.92L143.14 12.92L143.14 12.92Q143.56 12.50 144.17 12.50L144.17 12.50L144.17 12.50Q144.49 12.50 144.77 12.61L144.77 12.61L144.77 12.61Q144.33 13.09 144.33 13.62L144.33 13.62L144.33 13.62Q144.33 14.15 144.62 14.48L144.62 14.48L144.62 14.48Q144.91 14.80 145.42 14.80L145.42 14.80L145.42 14.80Q145.92 14.80 146.27 14.54L146.27 14.54L146.27 14.54Q146.61 14.28 146.61 13.87L146.61 13.87L146.61 13.87Q146.61 13.45 146.37 13.13L146.37 13.13L146.37 13.13Q146.13 12.81 145.78 12.57L145.78 12.57L145.78 12.57Q145.42 12.32 145.00 12.01L145.00 12.01L145.00 12.01Q144.58 11.70 144.22 11.39L144.22 11.39L144.22 11.39Q143.86 11.07 143.63 10.59L143.63 10.59L143.63 10.59Q143.39 10.11 143.39 9.53L143.39 9.53L143.39 9.53Q143.39 8.54 144.21 7.90L144.21 7.90L144.21 7.90Q145.03 7.27 146.25 7.27L146.25 7.27L146.25 7.27Q147.48 7.27 148.04 7.74L148.04 7.74L148.04 7.74Q148.61 8.22 148.61 8.86L148.61 8.86L148.61 8.86Q148.61 9.49 148.21 9.94L148.21 9.94L148.21 9.94Q147.81 10.39 147.18 10.39L147.18 10.39L147.18 10.39Q146.87 10.39 146.48 10.26L146.48 10.26L146.48 10.26Q146.79 10.00 146.96 9.65L146.96 9.65L146.96 9.65Q147.13 9.31 147.13 8.97L147.13 8.97L147.13 8.97Q147.13 8.64 146.85 8.41L146.85 8.41L146.85 8.41Q146.57 8.18 146.17 8.18Z"></path></g><!----><g data-v-423bf9ae="" id="7a477c31-c868-4c9e-a5ae-62fb36dbc421" transform="matrix(1.7012426021636025,0,0,1.7012426021636025,1.0453089388608703,1.0564564082461914)" stroke="none" fill="white"><path d="M99.063 50.809h-2.992V7.911h2.228a.334.334 0 0 0 .193-.606L89.226.482c-1.111-.748-2.81-.748-3.958-.012L77.8 5.86 70.497.483c-1.111-.748-2.81-.748-3.959-.012l-7.468 5.39L51.767.484c-1.111-.748-2.81-.748-3.959-.012l-7.467 5.39L33.04.482c-1.112-.748-2.81-.748-3.959-.012l-7.468 5.39L14.311.483C13.199-.265 11.5-.265 10.352.471L.678 7.452c-.23.112-.15.459.106.459h2.723v42.897H.635a.787.787 0 0 0-.787.785v.443c0 .434.353.786.787.786H99.062a.786.786 0 0 0 .785-.786v-.443a.782.782 0 0 0-.784-.784zM9.213 13.231h2.215c.289 0 .524.234.524.523v1.536c0 .29-.235.524-.524.524H9.213a.523.523 0 0 1-.524-.524v-1.536c0-.289.234-.523.524-.523zm-.524-1.354v-1.535c0-.29.234-.525.524-.525h2.215c.289 0 .524.235.524.525v1.535a.524.524 0 0 1-.524.523H9.213a.523.523 0 0 1-.524-.523zm.524 8.893h2.215c.289 0 .524.235.524.525v1.535c0 .29-.235.523-.524.523H9.213a.523.523 0 0 1-.524-.523v-1.535c0-.291.234-.525.524-.525zm0 3.413h2.215c.289 0 .524.235.524.524v1.536a.524.524 0 0 1-.524.523H9.213a.523.523 0 0 1-.524-.523v-1.536c0-.289.234-.524.524-.524zm2.776 23.964a.523.523 0 0 1-.524.524H9.25a.523.523 0 0 1-.524-.524v-1.536c0-.288.234-.523.524-.523h2.215c.29 0 .524.235.524.523v1.536zm0-3.412c0 .29-.235.523-.524.523H9.25a.522.522 0 0 1-.524-.523v-1.536c0-.289.234-.524.524-.524h2.215c.29 0 .524.235.524.524v1.536zm0-7.54a.523.523 0 0 1-.524.524H9.25a.523.523 0 0 1-.524-.524V35.66c0-.289.234-.524.524-.524h2.215c.29 0 .524.235.524.524v1.535zm0-3.414a.523.523 0 0 1-.524.524H9.25a.523.523 0 0 1-.524-.524v-1.535c0-.289.234-.524.524-.524h2.215c.29 0 .524.235.524.524v1.535zm1.249-20.55h2.216c.29 0 .524.234.524.523v1.536c0 .29-.235.524-.524.524h-2.216a.524.524 0 0 1-.524-.524v-1.536c0-.289.235-.523.524-.523zm-.524-1.354v-1.535c0-.29.235-.525.524-.525h2.216c.29 0 .524.235.524.525v1.535a.524.524 0 0 1-.524.523h-2.216a.524.524 0 0 1-.524-.523zm.524 8.893h2.216c.29 0 .524.235.524.525v1.535c0 .29-.235.523-.524.523h-2.216a.524.524 0 0 1-.524-.523v-1.535c0-.291.235-.525.524-.525zm0 3.413h2.216c.29 0 .524.235.524.524v1.536a.524.524 0 0 1-.524.523h-2.216a.524.524 0 0 1-.524-.523v-1.536c0-.289.235-.524.524-.524zm2.777 23.964a.523.523 0 0 1-.524.524h-2.216a.523.523 0 0 1-.524-.524v-1.536c0-.288.234-.523.524-.523h2.216c.289 0 .524.235.524.523v1.536zm0-3.412c0 .29-.235.523-.524.523h-2.216a.522.522 0 0 1-.524-.523v-1.536c0-.289.234-.524.524-.524h2.216c.289 0 .524.235.524.524v1.536zm0-7.54a.523.523 0 0 1-.524.524h-2.216a.523.523 0 0 1-.524-.524V35.66c0-.289.234-.524.524-.524h2.216c.289 0 .524.235.524.524v1.535zm0-3.414a.523.523 0 0 1-.524.524h-2.216a.523.523 0 0 1-.524-.524v-1.535c0-.289.234-.524.524-.524h2.216c.289 0 .524.235.524.524v1.535zm3.031-25.844h-1.602l-5.029-3.383-5.03 3.383H5.783a.207.207 0 0 1-.141-.358l6.389-4.652a.56.56 0 0 1 .766 0l6.39 4.652a.207.207 0 0 1-.141.358zm3.189 42.872h-1.081V7.911h1.081v42.898zm5.707-37.578h2.215c.29 0 .525.234.525.523v1.536c0 .29-.235.524-.525.524h-2.215a.523.523 0 0 1-.524-.524v-1.536a.522.522 0 0 1 .524-.523zm-.525-1.354v-1.535c0-.29.234-.525.524-.525h2.215c.29 0 .525.235.525.525v1.535a.524.524 0 0 1-.525.523h-2.215a.524.524 0 0 1-.524-.523zm.525 8.893h2.215c.29 0 .525.235.525.525v1.535c0 .29-.235.523-.525.523h-2.215a.523.523 0 0 1-.524-.523v-1.535a.523.523 0 0 1 .524-.525zm0 3.413h2.215c.29 0 .525.235.525.524v1.536a.524.524 0 0 1-.525.523h-2.215a.523.523 0 0 1-.524-.523v-1.536a.523.523 0 0 1 .524-.524zm2.776 23.964a.523.523 0 0 1-.524.524h-2.216a.523.523 0 0 1-.524-.524v-1.536c0-.288.235-.523.524-.523h2.216c.289 0 .524.235.524.523v1.536zm0-3.412c0 .29-.235.523-.524.523h-2.216a.523.523 0 0 1-.524-.523v-1.536c0-.289.235-.524.524-.524h2.216c.289 0 .524.235.524.524v1.536zm0-7.54a.523.523 0 0 1-.524.524h-2.216a.523.523 0 0 1-.524-.524V35.66c0-.289.235-.524.524-.524h2.216c.289 0 .524.235.524.524v1.535zm0-3.414a.523.523 0 0 1-.524.524h-2.216a.523.523 0 0 1-.524-.524v-1.535c0-.289.235-.524.524-.524h2.216c.289 0 .524.235.524.524v1.535zm1.249-20.55h2.215c.291 0 .525.234.525.523v1.536c0 .29-.234.524-.525.524h-2.215a.523.523 0 0 1-.524-.524v-1.536c0-.289.234-.523.524-.523zm-.524-1.354v-1.535c0-.29.234-.525.524-.525h2.215c.291 0 .525.235.525.525v1.535a.523.523 0 0 1-.525.523h-2.215a.523.523 0 0 1-.524-.523zm.524 8.893h2.215c.291 0 .525.235.525.525v1.535c0 .29-.234.523-.525.523h-2.215a.523.523 0 0 1-.524-.523v-1.535c0-.291.234-.525.524-.525zm0 3.413h2.215c.291 0 .525.235.525.524v1.536a.523.523 0 0 1-.525.523h-2.215a.523.523 0 0 1-.524-.523v-1.536c0-.289.234-.524.524-.524zm2.776 23.964a.523.523 0 0 1-.524.524h-2.216a.522.522 0 0 1-.523-.524v-1.536c0-.288.235-.523.523-.523h2.216c.29 0 .524.235.524.523v1.536zm0-3.412c0 .29-.234.523-.524.523h-2.216a.522.522 0 0 1-.523-.523v-1.536c0-.289.235-.524.523-.524h2.216c.29 0 .524.235.524.524v1.536zm0-7.54a.523.523 0 0 1-.524.524h-2.216a.522.522 0 0 1-.523-.524V35.66c0-.289.235-.524.523-.524h2.216c.29 0 .524.235.524.524v1.535zm0-3.414a.523.523 0 0 1-.524.524h-2.216a.522.522 0 0 1-.523-.524v-1.535c0-.289.235-.524.523-.524h2.216c.29 0 .524.235.524.524v1.535zm3.032-25.844h-1.602l-5.029-3.383-5.029 3.383h-1.602a.206.206 0 0 1-.141-.358l6.39-4.652a.56.56 0 0 1 .766 0l6.39 4.652a.208.208 0 0 1-.143.358zm3.189 42.872h-1.081V7.911h1.081v42.898zm5.707-37.578h2.215c.29 0 .524.234.524.523v1.536c0 .29-.235.524-.524.524h-2.215a.523.523 0 0 1-.524-.524v-1.536c0-.289.234-.523.524-.523zm-.524-1.354v-1.535c0-.29.234-.525.524-.525h2.215c.29 0 .524.235.524.525v1.535a.524.524 0 0 1-.524.523h-2.215a.523.523 0 0 1-.524-.523zm.524 8.893h2.215c.29 0 .524.235.524.525v1.535c0 .29-.235.523-.524.523h-2.215a.523.523 0 0 1-.524-.523v-1.535c0-.291.234-.525.524-.525zm0 3.413h2.215c.29 0 .524.235.524.524v1.536a.524.524 0 0 1-.524.523h-2.215a.523.523 0 0 1-.524-.523v-1.536c0-.289.234-.524.524-.524zm2.776 23.964a.523.523 0 0 1-.525.524h-2.214a.523.523 0 0 1-.525-.524v-1.536c0-.288.235-.523.525-.523h2.214c.29 0 .525.235.525.523v1.536zm0-3.412c0 .29-.235.523-.525.523h-2.214a.523.523 0 0 1-.525-.523v-1.536c0-.289.235-.524.525-.524h2.214c.29 0 .525.235.525.524v1.536zm0-7.54a.523.523 0 0 1-.525.524h-2.214a.523.523 0 0 1-.525-.524V35.66c0-.289.235-.524.525-.524h2.214c.29 0 .525.235.525.524v1.535zm0-3.414a.523.523 0 0 1-.525.524h-2.214a.523.523 0 0 1-.525-.524v-1.535c0-.289.235-.524.525-.524h2.214c.29 0 .525.235.525.524v1.535zm1.249-20.55h2.214c.291 0 .526.234.526.523v1.536c0 .29-.235.524-.526.524h-2.214a.524.524 0 0 1-.524-.524v-1.536c0-.289.235-.523.524-.523zm-.524-1.354v-1.535c0-.29.235-.525.524-.525h2.214c.291 0 .526.235.526.525v1.535a.524.524 0 0 1-.526.523h-2.214a.524.524 0 0 1-.524-.523zm.524 8.893h2.214c.291 0 .526.235.526.525v1.535c0 .29-.235.523-.526.523h-2.214a.524.524 0 0 1-.524-.523v-1.535c0-.291.235-.525.524-.525zm0 3.413h2.214c.291 0 .526.235.526.524v1.536a.524.524 0 0 1-.526.523h-2.214a.524.524 0 0 1-.524-.523v-1.536c0-.289.235-.524.524-.524zm2.776 23.964a.522.522 0 0 1-.523.524h-2.216a.522.522 0 0 1-.523-.524v-1.536c0-.288.235-.523.523-.523h2.216c.29 0 .523.235.523.523v1.536zm0-3.412c0 .29-.233.523-.523.523h-2.216a.522.522 0 0 1-.523-.523v-1.536c0-.289.235-.524.523-.524h2.216c.29 0 .523.235.523.524v1.536zm0-7.54a.522.522 0 0 1-.523.524h-2.216a.522.522 0 0 1-.523-.524V35.66c0-.289.235-.524.523-.524h2.216c.29 0 .523.235.523.524v1.535zm0-3.414a.522.522 0 0 1-.523.524h-2.216a.522.522 0 0 1-.523-.524v-1.535c0-.289.235-.524.523-.524h2.216c.29 0 .523.235.523.524v1.535zm3.032-25.844h-1.602l-5.03-3.383-5.029 3.383H43.24a.207.207 0 0 1-.141-.358l6.389-4.652a.561.561 0 0 1 .767 0l6.389 4.652a.207.207 0 0 1-.14.358zm3.189 42.872h-1.081V7.911h1.081v42.898zm5.706-37.578h2.215c.29 0 .525.234.525.523v1.536c0 .29-.235.524-.525.524h-2.215a.522.522 0 0 1-.523-.524v-1.536c0-.289.233-.523.523-.523zm-.523-1.354v-1.535c0-.29.233-.525.523-.525h2.215c.29 0 .525.235.525.525v1.535a.524.524 0 0 1-.525.523h-2.215a.522.522 0 0 1-.523-.523zm.523 8.893h2.215c.29 0 .525.235.525.525v1.535c0 .29-.235.523-.525.523h-2.215a.522.522 0 0 1-.523-.523v-1.535c0-.291.233-.525.523-.525zm0 3.413h2.215c.29 0 .525.235.525.524v1.536a.524.524 0 0 1-.525.523h-2.215a.522.522 0 0 1-.523-.523v-1.536c0-.289.233-.524.523-.524zm2.777 23.964a.523.523 0 0 1-.524.524h-2.215a.523.523 0 0 1-.524-.524v-1.536c0-.288.234-.523.524-.523h2.215c.289 0 .524.235.524.523v1.536zm0-3.412c0 .29-.235.523-.524.523h-2.215a.522.522 0 0 1-.524-.523v-1.536c0-.289.234-.524.524-.524h2.215c.289 0 .524.235.524.524v1.536zm0-7.54a.523.523 0 0 1-.524.524h-2.215a.523.523 0 0 1-.524-.524V35.66c0-.289.234-.524.524-.524h2.215c.289 0 .524.235.524.524v1.535zm0-3.414a.523.523 0 0 1-.524.524h-2.215a.523.523 0 0 1-.524-.524v-1.535c0-.289.234-.524.524-.524h2.215c.289 0 .524.235.524.524v1.535zm1.249-20.55h2.217c.288 0 .523.234.523.523v1.536c0 .29-.235.524-.523.524h-2.217a.525.525 0 0 1-.524-.524v-1.536a.524.524 0 0 1 .524-.523zm-.525-1.354v-1.535c0-.29.236-.525.524-.525h2.217c.288 0 .523.235.523.525v1.535a.523.523 0 0 1-.523.523h-2.217a.525.525 0 0 1-.524-.523zm.525 8.893h2.217c.288 0 .523.235.523.525v1.535c0 .29-.235.523-.523.523h-2.217a.524.524 0 0 1-.524-.523v-1.535a.524.524 0 0 1 .524-.525zm0 3.413h2.217c.288 0 .523.235.523.524v1.536a.523.523 0 0 1-.523.523h-2.217a.524.524 0 0 1-.524-.523v-1.536a.525.525 0 0 1 .524-.524zm2.777 23.964a.523.523 0 0 1-.525.524h-2.215a.523.523 0 0 1-.524-.524v-1.536c0-.288.234-.523.524-.523h2.215c.29 0 .525.235.525.523v1.536zm0-3.412c0 .29-.235.523-.525.523h-2.215a.522.522 0 0 1-.524-.523v-1.536c0-.289.234-.524.524-.524h2.215c.29 0 .525.235.525.524v1.536zm0-7.54a.523.523 0 0 1-.525.524h-2.215a.523.523 0 0 1-.524-.524V35.66c0-.289.234-.524.524-.524h2.215c.29 0 .525.235.525.524v1.535zm0-3.414a.523.523 0 0 1-.525.524h-2.215a.523.523 0 0 1-.524-.524v-1.535c0-.289.234-.524.524-.524h2.215c.29 0 .525.235.525.524v1.535zm3.03-25.844H73.63l-5.029-3.383-5.029 3.383H61.97a.207.207 0 0 1-.141-.358l6.389-4.652a.56.56 0 0 1 .766 0l6.39 4.652a.207.207 0 0 1-.142.358zm3.19 42.872h-1.08V7.911h1.08v42.898zm5.706-37.578h2.216c.289 0 .525.234.525.523v1.536c0 .29-.236.524-.525.524h-2.216a.523.523 0 0 1-.523-.524v-1.536a.522.522 0 0 1 .523-.523zm-.524-1.354v-1.535c0-.29.234-.525.523-.525h2.216c.289 0 .525.235.525.525v1.535a.525.525 0 0 1-.525.523h-2.216a.523.523 0 0 1-.523-.523zm.524 8.893h2.216c.289 0 .525.235.525.525v1.535c0 .29-.236.523-.525.523h-2.216a.523.523 0 0 1-.523-.523v-1.535a.523.523 0 0 1 .523-.525zm0 3.413h2.216c.289 0 .525.235.525.524v1.536a.525.525 0 0 1-.525.523h-2.216a.523.523 0 0 1-.523-.523v-1.536a.523.523 0 0 1 .523-.524zm2.777 23.964a.523.523 0 0 1-.525.524h-2.215a.522.522 0 0 1-.523-.524v-1.536c0-.288.233-.523.523-.523h2.215c.29 0 .525.235.525.523v1.536zm0-3.412c0 .29-.235.523-.525.523h-2.215a.522.522 0 0 1-.523-.523v-1.536c0-.289.233-.524.523-.524h2.215c.29 0 .525.235.525.524v1.536zm0-7.54a.523.523 0 0 1-.525.524h-2.215a.522.522 0 0 1-.523-.524V35.66c0-.289.233-.524.523-.524h2.215c.29 0 .525.235.525.524v1.535zm0-3.414a.523.523 0 0 1-.525.524h-2.215a.522.522 0 0 1-.523-.524v-1.535c0-.289.233-.524.523-.524h2.215c.29 0 .525.235.525.524v1.535zm1.249-20.55h2.216c.29 0 .523.234.523.523v1.536c0 .29-.233.524-.523.524h-2.216a.525.525 0 0 1-.525-.524v-1.536c0-.289.236-.523.525-.523zm-.525-1.354v-1.535c0-.29.236-.525.525-.525h2.216c.29 0 .523.235.523.525v1.535a.522.522 0 0 1-.523.523h-2.216a.525.525 0 0 1-.525-.523zm.525 8.893h2.216c.29 0 .523.235.523.525v1.535c0 .29-.233.523-.523.523h-2.216a.525.525 0 0 1-.525-.523v-1.535c0-.291.236-.525.525-.525zm0 3.413h2.216c.29 0 .523.235.523.524v1.536a.522.522 0 0 1-.523.523h-2.216a.525.525 0 0 1-.525-.523v-1.536c0-.289.236-.524.525-.524zm2.777 23.964a.523.523 0 0 1-.524.524H88.19a.523.523 0 0 1-.524-.524v-1.536c0-.288.235-.523.524-.523h2.216c.29 0 .524.235.524.523v1.536zm0-3.412c0 .29-.234.523-.524.523H88.19a.523.523 0 0 1-.524-.523v-1.536c0-.289.235-.524.524-.524h2.216c.29 0 .524.235.524.524v1.536zm0-7.54a.523.523 0 0 1-.524.524H88.19a.523.523 0 0 1-.524-.524V35.66c0-.289.235-.524.524-.524h2.216c.29 0 .524.235.524.524v1.535zm0-3.414a.523.523 0 0 1-.524.524H88.19a.523.523 0 0 1-.524-.524v-1.535c0-.289.235-.524.524-.524h2.216c.29 0 .524.235.524.524v1.535zm3.03-25.844H92.36l-5.03-3.383-5.029 3.383h-1.602a.207.207 0 0 1-.142-.358l6.39-4.652a.56.56 0 0 1 .766 0l6.39 4.652a.207.207 0 0 1-.142.358z"></path></g><!----><g data-v-423bf9ae="" id="7fd7f78f-3dff-4a62-bf5f-ee09b2d3e585" fill="white" transform="matrix(1.4550761285265654,0,0,1.4550761285265654,189.06036043290348,55.57656708666164)"><path d="M0.73 5.77C0.73 9.07 5.71 8.20 5.71 10.65C5.71 11.59 4.87 12.31 3.89 12.31C3.07 12.31 1.47 11.83 1.44 11.47L1.36 10.15C1.34 9.97 1.27 9.91 1.09 9.91L1.02 9.91C0.81 9.91 0.81 10.00 0.81 10.12C0.81 10.32 0.92 11.66 0.95 12.17C0.97 12.38 2.23 12.85 3.77 12.85C5.33 12.85 6.94 11.87 6.94 10.11C6.94 6.79 1.97 7.87 1.97 5.32C1.97 4.31 2.76 3.56 3.79 3.56C4.82 3.56 5.91 4.58 5.91 4.89C5.91 5.01 5.87 5.73 5.87 5.78C5.87 5.92 5.91 5.99 6.17 5.99C6.41 5.99 6.43 5.94 6.43 5.75C6.43 5.04 6.51 3.68 6.51 3.53C6.51 3.30 6.47 3.29 6.20 3.29C5.98 3.29 5.96 3.32 5.95 3.53C5.95 3.61 5.94 3.78 5.89 3.78C5.84 3.78 5.75 3.74 5.68 3.68C4.89 3.14 4.27 3.08 3.77 3.08C2.24 3.08 0.73 4.17 0.73 5.77ZM14.62 7.73C14.62 7.78 14.64 7.78 14.74 7.78C14.80 7.78 15.40 7.76 15.55 7.76C15.69 7.76 15.72 7.73 15.74 7.91C15.78 8.48 15.83 8.92 15.83 11.93L15.83 13.92C15.83 14.83 15.83 16.11 15.79 16.11L15.04 16.11C14.87 16.11 14.85 16.20 14.85 16.34C14.85 16.49 14.87 16.58 15.04 16.58C15.46 16.58 16.09 16.55 16.44 16.55C16.84 16.55 17.68 16.58 17.95 16.58C18.13 16.58 18.14 16.46 18.14 16.34C18.14 16.20 18.14 16.11 17.95 16.11L16.97 16.11C16.93 16.11 16.91 15.68 16.90 15.22L16.86 12.71C16.86 12.57 16.86 12.53 16.88 12.53C16.93 12.53 17.47 12.77 18.07 12.77C19.94 12.77 21.04 11.31 21.04 9.88C21.04 8.39 20.24 7.20 18.61 7.20C18.00 7.20 17.40 7.49 17.07 7.73C16.97 7.80 16.84 7.92 16.84 7.76L16.84 7.48C16.84 7.27 16.77 7.24 16.65 7.24C16.59 7.24 15.68 7.29 14.74 7.32C14.69 7.32 14.62 7.71 14.62 7.73ZM16.86 11.91L16.86 8.32C16.86 8.30 16.87 8.16 17.29 7.95C17.50 7.85 17.78 7.77 18.17 7.77C19.18 7.77 19.95 8.62 19.95 9.98C19.95 11.09 19.31 12.42 18.03 12.42C17.60 12.42 16.86 12.15 16.86 11.91ZM28.94 11.61C28.94 12.35 29.47 12.84 30.35 12.84C30.97 12.84 31.68 12.45 32.09 12.19C32.19 12.14 32.20 12.11 32.24 12.24C32.33 12.46 32.38 12.88 32.83 12.88C32.93 12.88 33.17 12.74 33.42 12.56C33.75 12.31 34.13 12.04 34.13 12.01C34.13 11.93 33.98 11.73 33.91 11.73C33.88 11.73 33.46 12.08 33.35 12.08C33.31 12.08 33.10 12.01 33.10 11.70C33.10 11.40 33.18 9.56 33.18 8.85C33.18 7.73 32.75 6.97 31.30 6.97C30.38 6.97 29.13 7.67 29.13 8.85C29.13 9.00 29.19 9.11 29.26 9.11C29.33 9.11 29.83 8.86 30.07 8.69C30.16 8.64 30.17 8.50 30.17 8.41C30.17 7.84 30.20 7.63 30.58 7.48C30.70 7.42 30.87 7.39 31.01 7.39C32.17 7.39 32.19 8.32 32.19 9.31C32.19 9.44 32.19 9.48 32.12 9.49C30.73 9.73 28.94 10.32 28.94 11.61ZM30.00 11.21C30.00 10.58 30.63 10.22 31.29 10.01C31.68 9.88 32.10 9.80 32.14 9.80C32.17 9.80 32.19 9.81 32.19 9.91L32.19 11.75C32.19 11.84 31.40 12.14 30.87 12.14C30.31 12.14 30.00 11.65 30.00 11.21ZM41.80 10.12C41.80 11.73 42.83 12.78 44.49 12.78C45.88 12.78 46.75 11.90 46.75 11.82C46.75 11.68 46.70 11.66 46.61 11.66C46.54 11.66 45.88 12.08 44.91 12.08C43.50 12.08 42.80 10.93 42.80 9.77C42.80 8.68 43.48 7.43 44.65 7.43C45.50 7.43 45.53 8.04 45.75 8.68C45.79 8.82 45.91 8.86 46.03 8.86C46.17 8.86 46.35 8.76 46.48 8.67C46.61 8.57 46.63 8.48 46.63 8.36C46.63 7.60 45.65 6.97 44.73 6.97C43.36 6.97 41.80 8.02 41.80 10.12ZM54.40 7.64C54.40 7.70 54.47 7.70 54.53 7.70C54.59 7.70 55.16 7.67 55.20 7.67C55.30 7.67 55.36 7.66 55.37 7.85C55.41 8.88 55.43 9.87 55.43 10.85C55.43 11.14 55.43 12.21 55.38 12.21L54.68 12.21C54.49 12.21 54.47 12.29 54.47 12.43C54.47 12.59 54.47 12.67 54.64 12.67C54.91 12.67 55.58 12.64 55.93 12.64C56.28 12.64 56.87 12.67 57.13 12.67C57.29 12.67 57.30 12.57 57.30 12.43C57.30 12.28 57.30 12.21 57.13 12.21L56.53 12.21C56.46 12.21 56.46 10.04 56.46 9.70L56.46 7.32C56.46 7.24 56.46 7.20 56.32 7.20C56.25 7.20 55.51 7.24 54.74 7.27C54.57 7.27 54.53 7.27 54.47 7.41C54.43 7.52 54.40 7.60 54.40 7.64ZM55.16 4.86C55.16 5.28 55.47 5.47 55.78 5.47C56.18 5.47 56.67 5.15 56.67 4.65C56.67 4.21 56.35 4.05 56.04 4.05C55.69 4.05 55.16 4.33 55.16 4.86ZM64.99 10.04C64.99 11.58 66.15 12.85 67.68 12.85C69.44 12.85 70.48 11.58 70.48 9.84C70.48 8.29 69.45 7.01 67.90 7.01C66.15 7.01 64.99 8.37 64.99 10.04ZM66.07 10.23C66.07 8.69 66.46 7.46 67.73 7.46C68.87 7.46 69.38 8.74 69.38 9.74C69.38 10.92 69.15 12.40 67.68 12.40C66.63 12.40 66.07 11.27 66.07 10.23ZM78.01 7.60C78.01 7.66 78.05 7.67 78.12 7.67C78.18 7.67 78.76 7.66 78.81 7.66C78.90 7.66 78.93 8.05 78.93 8.69L78.93 10.89C78.93 11.83 79.14 12.80 80.50 12.80C81.54 12.80 82.73 12.15 82.75 12.15C82.80 12.15 82.77 12.87 82.85 12.87C82.91 12.87 84.04 12.70 84.52 12.63C84.70 12.60 84.70 12.59 84.70 12.38C84.70 12.29 84.70 12.19 84.62 12.19C84.57 12.19 84.03 12.28 84 12.28C83.82 12.28 83.78 12.19 83.78 11.49C83.78 10.63 83.79 7.28 83.79 7.28C83.79 7.20 83.80 7.15 83.65 7.15C83.58 7.15 82.74 7.20 82.03 7.22C81.90 7.22 81.86 7.25 81.84 7.35C81.83 7.39 81.82 7.56 81.82 7.60C81.82 7.64 81.87 7.64 81.93 7.64C81.97 7.64 82.52 7.62 82.63 7.62C82.71 7.62 82.74 9.87 82.74 10.18L82.74 11.83C82.74 11.93 81.98 12.01 81.51 12.01C80.68 12.01 80.00 11.86 80.00 11.12L80.00 7.31C80.00 7.22 80.00 7.18 79.91 7.18C79.84 7.18 78.62 7.22 78.32 7.24C78.15 7.25 78.11 7.24 78.06 7.36C78.04 7.43 78.01 7.55 78.01 7.60ZM92.44 11.90C92.44 12.39 93.39 12.81 94.25 12.81C95.30 12.81 96.26 12.17 96.26 11.12C96.26 10.25 95.30 9.83 94.50 9.45C93.90 9.16 93.38 8.95 93.38 8.37C93.38 7.67 93.91 7.43 94.36 7.43C95.24 7.43 95.06 8.34 95.41 8.34C95.59 8.34 96.04 8.23 96.04 8.06C96.04 7.67 95.62 7.06 94.54 7.06C93.53 7.06 92.48 7.71 92.48 8.68C92.48 9.62 93.38 10.00 94.14 10.33C94.79 10.61 95.35 10.91 95.35 11.54C95.35 12.14 94.93 12.40 94.47 12.40C93.86 12.40 93.49 12.08 93.20 11.72C93.06 11.54 93.00 11.31 92.90 11.31C92.81 11.31 92.44 11.62 92.44 11.90ZM113.96 12.39C113.96 12.63 113.99 12.68 114.18 12.68C114.42 12.68 114.93 12.64 115.35 12.64C115.77 12.64 116.26 12.68 116.58 12.68C116.75 12.68 116.77 12.61 116.77 12.40C116.77 12.24 116.75 12.18 116.58 12.18L115.61 12.18C115.56 12.18 115.54 11.54 115.54 10.79C115.54 8.96 115.58 6.13 115.65 4.28C115.68 3.88 115.71 3.91 115.85 4.27L119.11 12.32C119.21 12.54 119.28 12.74 119.39 12.74C119.49 12.74 119.56 12.63 119.64 12.45C119.98 11.79 120.16 11.75 120.43 11.09L123.02 4.47C123.14 4.16 123.19 4.02 123.20 4.47C123.23 5.66 123.27 8.47 123.27 9.74C123.27 10.99 123.23 12.18 123.17 12.18L122.54 12.18C122.32 12.18 122.25 12.19 122.25 12.39C122.25 12.63 122.28 12.68 122.47 12.68C122.67 12.68 123.37 12.64 123.97 12.64C124.39 12.64 125.15 12.68 125.47 12.68C125.64 12.68 125.66 12.61 125.66 12.40C125.66 12.22 125.61 12.18 125.44 12.18L124.71 12.18C124.60 12.18 124.50 8.44 124.50 6.03L124.50 4.77C124.50 4.17 124.53 3.77 124.57 3.70L125.23 3.70C125.45 3.70 125.50 3.68 125.50 3.49C125.50 3.25 125.48 3.19 125.29 3.19C124.96 3.19 124.28 3.23 123.86 3.23L123.19 3.23C122.96 3.23 122.93 3.29 122.82 3.58L120.08 10.72C119.99 10.95 119.97 11.02 119.85 10.74L116.91 3.40C116.84 3.22 116.79 3.19 116.65 3.19C116.56 3.19 116.07 3.23 115.77 3.23C115.26 3.23 114.41 3.19 114.21 3.19C114.07 3.19 114.07 3.26 114.07 3.47C114.07 3.64 114.07 3.70 114.21 3.70L114.91 3.70C115.18 3.70 115.18 3.72 115.18 3.84C115.18 4.82 114.97 9.94 114.93 10.79C114.88 11.55 114.88 12.18 114.83 12.18L114.25 12.18C114.03 12.18 113.96 12.19 113.96 12.39ZM133.42 10.04C133.42 11.58 134.58 12.85 136.11 12.85C137.87 12.85 138.91 11.58 138.91 9.84C138.91 8.29 137.89 7.01 136.33 7.01C134.58 7.01 133.42 8.37 133.42 10.04ZM134.50 10.23C134.50 8.69 134.89 7.46 136.16 7.46C137.30 7.46 137.82 8.74 137.82 9.74C137.82 10.92 137.58 12.40 136.11 12.40C135.06 12.40 134.50 11.27 134.50 10.23ZM146.66 10.07C146.66 12.11 147.91 12.82 149.17 12.82C149.72 12.82 150.39 12.57 150.86 12.28C150.98 12.21 151.02 12.22 151.02 12.29C151.02 12.35 151.00 12.77 151.00 12.80C151.00 12.92 151.02 12.96 151.12 12.96C151.19 12.96 152.84 12.74 152.84 12.74C152.96 12.73 152.96 12.57 152.96 12.38C152.96 12.28 152.91 12.28 152.82 12.29C152.68 12.31 152.36 12.36 152.32 12.36C152.08 12.36 152.03 12.24 152.01 11.63C152.00 11.13 151.98 10.47 151.98 10.02C151.98 5.68 152.07 3.74 152.07 3.26C152.07 3.07 152.05 3.04 152.00 3.04C151.77 3.04 150.93 3.19 150.01 3.29C149.90 3.30 149.91 3.33 149.88 3.51C149.86 3.70 149.87 3.77 149.94 3.77C150.04 3.77 150.79 3.64 150.88 3.64C150.96 3.64 151.03 6.51 151.03 7.41C151.03 7.52 151.02 7.60 150.99 7.60C150.95 7.60 150.35 7.25 149.55 7.25C147.91 7.25 146.66 8.46 146.66 10.07ZM147.77 9.97C147.77 8.74 148.51 7.62 149.72 7.62C150.43 7.62 151.03 8.16 151.03 8.30L151.03 11.80C151.03 12.00 150.23 12.22 149.86 12.22C148.37 12.22 147.77 11.26 147.77 9.97ZM160.66 10.01C160.66 11.68 161.63 12.85 163.39 12.85C164.85 12.85 165.84 11.56 165.84 11.48C165.84 11.45 165.61 11.24 165.56 11.24C165.48 11.24 164.89 12.15 163.72 12.15C162.71 12.15 161.71 11.33 161.71 9.88C161.71 9.72 161.73 9.49 161.76 9.42C161.97 9.42 164.72 9.49 164.88 9.49C165.02 9.49 165.68 9.46 165.68 9.28C165.68 8.09 164.96 7.01 163.55 7.01C161.84 7.01 160.66 8.33 160.66 10.01ZM161.78 9.03C161.84 8.34 162.48 7.41 163.38 7.41C163.81 7.41 164.63 7.70 164.63 8.99C164.63 9.04 164.46 9.03 164.11 9.04C163.41 9.07 161.98 9.10 161.91 9.10C161.80 9.10 161.78 9.09 161.78 9.03ZM173.50 7.71C173.50 7.76 173.53 7.76 173.60 7.76C173.64 7.76 174.36 7.73 174.44 7.73C174.52 7.73 174.55 9.20 174.55 10.33C174.55 11.24 174.54 12.21 174.44 12.21L173.82 12.21C173.66 12.21 173.66 12.29 173.66 12.43C173.66 12.59 173.67 12.67 173.84 12.67C174.26 12.67 174.73 12.64 175.08 12.64C175.49 12.64 176.34 12.67 176.61 12.67C176.79 12.67 176.79 12.56 176.79 12.43C176.79 12.29 176.78 12.21 176.61 12.21L175.69 12.21C175.59 12.21 175.56 11.47 175.56 10.68C175.56 9.46 175.67 7.87 176.32 7.87C176.55 7.87 176.83 8.32 177.14 8.32C177.41 8.32 177.72 7.85 177.72 7.69C177.72 7.49 177.32 7.04 176.88 7.04C176.43 7.04 175.85 7.49 175.53 8.26C175.46 8.40 175.48 8.46 175.48 8.23C175.48 7.98 175.49 7.64 175.49 7.42C175.49 7.29 175.49 7.29 175.32 7.29C175.22 7.29 174.33 7.32 173.81 7.34C173.61 7.34 173.59 7.34 173.56 7.45C173.54 7.52 173.50 7.66 173.50 7.71ZM185.09 7.73C185.09 7.77 185.11 7.80 185.16 7.80C185.22 7.80 185.91 7.74 185.95 7.74C186.03 7.74 186.09 7.70 186.10 7.90C186.13 8.33 186.13 8.81 186.13 9.28C186.13 9.73 186.10 12.21 186.02 12.21L185.39 12.21C185.22 12.21 185.21 12.29 185.21 12.43C185.21 12.59 185.21 12.67 185.39 12.67C185.81 12.67 186.31 12.64 186.66 12.64C187.07 12.64 187.57 12.67 187.84 12.67C188.02 12.67 188.02 12.56 188.02 12.43C188.02 12.29 188.02 12.21 187.82 12.21L187.29 12.21C187.17 12.21 187.15 12.21 187.15 11.98C187.15 10.84 187.17 9.67 187.17 8.53C187.17 8.41 187.18 8.36 187.39 8.25C187.67 8.11 188.08 7.85 188.62 7.85C189.67 7.85 189.92 8.62 189.92 9.63C189.92 11.03 189.90 12.21 189.84 12.21L189.24 12.21C189.08 12.21 189.01 12.26 189.01 12.45C189.01 12.61 189.01 12.67 189.22 12.67C189.64 12.67 190.09 12.64 190.44 12.64C190.85 12.64 191.23 12.67 191.49 12.67C191.69 12.67 191.70 12.56 191.70 12.43C191.70 12.25 191.65 12.21 191.46 12.21L191.04 12.21C190.93 12.21 190.93 12.21 190.93 12.08C190.93 11.87 191.00 10.47 191.00 9.70C191.00 8.33 190.75 7.18 189.10 7.18C188.23 7.18 187.71 7.63 187.29 7.90C187.19 7.95 187.14 8.05 187.14 7.90L187.14 7.42C187.14 7.28 187.17 7.21 186.96 7.22C186.55 7.25 185.60 7.31 185.40 7.32C185.21 7.34 185.22 7.35 185.18 7.46C185.15 7.53 185.09 7.67 185.09 7.73ZM209.33 12.39C209.33 12.63 209.36 12.68 209.55 12.68C209.87 12.68 210.84 12.64 211.26 12.64C211.68 12.64 216.03 12.68 216.36 12.68C216.62 12.68 216.69 12.66 216.71 12.49C216.76 12.08 217 10.72 217 10.60C217 10.47 216.85 10.44 216.68 10.43C216.58 10.42 216.50 10.46 216.48 10.56L216.31 11.76C216.27 12.05 216.26 12.03 216.03 12.04C215.88 12.05 213.37 12.12 211.95 12.12C211.90 12.12 211.86 11.38 211.86 10.54L211.86 6.66C211.86 5.40 211.88 3.70 211.97 3.70L212.95 3.70C213.19 3.70 213.22 3.63 213.22 3.44C213.22 3.23 213.21 3.19 212.97 3.19C212.65 3.19 211.71 3.23 211.29 3.23C210.87 3.23 209.93 3.19 209.71 3.19C209.48 3.19 209.43 3.22 209.43 3.44C209.43 3.65 209.47 3.70 209.66 3.70L210.49 3.70C210.53 3.70 210.56 4.23 210.56 4.90L210.56 8.13C210.56 10.07 210.53 12.18 210.45 12.18L209.61 12.18C209.38 12.18 209.33 12.21 209.33 12.39ZM224.38 7.64C224.38 7.70 224.45 7.70 224.50 7.70C224.56 7.70 225.13 7.67 225.18 7.67C225.27 7.67 225.33 7.66 225.34 7.85C225.39 8.88 225.40 9.87 225.40 10.85C225.40 11.14 225.40 12.21 225.36 12.21L224.66 12.21C224.46 12.21 224.45 12.29 224.45 12.43C224.45 12.59 224.45 12.67 224.62 12.67C224.88 12.67 225.55 12.64 225.90 12.64C226.25 12.64 226.84 12.67 227.11 12.67C227.26 12.67 227.28 12.57 227.28 12.43C227.28 12.28 227.28 12.21 227.11 12.21L226.51 12.21C226.44 12.21 226.44 10.04 226.44 9.70L226.44 7.32C226.44 7.24 226.44 7.20 226.30 7.20C226.23 7.20 225.48 7.24 224.71 7.27C224.55 7.27 224.50 7.27 224.45 7.41C224.41 7.52 224.38 7.60 224.38 7.64ZM225.13 4.86C225.13 5.28 225.44 5.47 225.75 5.47C226.16 5.47 226.65 5.15 226.65 4.65C226.65 4.21 226.32 4.05 226.02 4.05C225.67 4.05 225.13 4.33 225.13 4.86ZM234.89 7.45C234.89 7.59 234.91 7.67 235.07 7.67L235.33 7.67C235.45 7.67 235.44 7.69 235.51 7.85C236.07 9.31 236.88 11.56 237.03 12.04C237.12 12.31 237.26 12.99 237.50 12.99C237.55 12.99 237.62 12.95 237.68 12.88C238.04 12.33 238.15 12.36 238.38 11.89C239.01 10.57 239.83 8.37 240.14 7.81C240.21 7.70 240.21 7.67 240.30 7.67L240.56 7.67C240.70 7.67 240.73 7.59 240.73 7.45C240.73 7.29 240.72 7.21 240.58 7.21C240.37 7.21 240.13 7.24 239.82 7.24C239.54 7.24 239.09 7.21 238.98 7.21C238.78 7.21 238.78 7.31 238.78 7.45C238.78 7.59 238.78 7.67 238.97 7.67L239.37 7.67C239.43 7.67 239.47 7.71 239.47 7.85C239.47 8.29 238.49 10.64 238.15 11.44C238.11 11.55 238.08 11.59 238.06 11.59C238.03 11.59 238 11.52 237.94 11.41C237.54 10.50 236.66 7.88 236.63 7.74C236.63 7.70 236.68 7.67 236.84 7.67L237.33 7.67C237.45 7.67 237.47 7.59 237.47 7.45C237.47 7.29 237.47 7.21 237.31 7.21C237.06 7.21 236.40 7.24 236.05 7.24C235.65 7.24 235.34 7.21 235.07 7.21C234.91 7.21 234.89 7.32 234.89 7.45ZM248.32 7.64C248.32 7.70 248.39 7.70 248.44 7.70C248.50 7.70 249.07 7.67 249.12 7.67C249.21 7.67 249.27 7.66 249.28 7.85C249.33 8.88 249.34 9.87 249.34 10.85C249.34 11.14 249.34 12.21 249.30 12.21L248.60 12.21C248.40 12.21 248.39 12.29 248.39 12.43C248.39 12.59 248.39 12.67 248.56 12.67C248.82 12.67 249.49 12.64 249.84 12.64C250.19 12.64 250.78 12.67 251.05 12.67C251.20 12.67 251.22 12.57 251.22 12.43C251.22 12.28 251.22 12.21 251.05 12.21L250.45 12.21C250.38 12.21 250.38 10.04 250.38 9.70L250.38 7.32C250.38 7.24 250.38 7.20 250.24 7.20C250.17 7.20 249.42 7.24 248.65 7.27C248.49 7.27 248.44 7.27 248.39 7.41C248.35 7.52 248.32 7.60 248.32 7.64ZM249.07 4.86C249.07 5.28 249.38 5.47 249.69 5.47C250.10 5.47 250.59 5.15 250.59 4.65C250.59 4.21 250.26 4.05 249.96 4.05C249.61 4.05 249.07 4.33 249.07 4.86ZM258.80 7.73C258.80 7.77 258.82 7.80 258.87 7.80C258.93 7.80 259.62 7.74 259.66 7.74C259.74 7.74 259.80 7.70 259.81 7.90C259.84 8.33 259.84 8.81 259.84 9.28C259.84 9.73 259.81 12.21 259.73 12.21L259.10 12.21C258.93 12.21 258.92 12.29 258.92 12.43C258.92 12.59 258.92 12.67 259.10 12.67C259.52 12.67 260.02 12.64 260.37 12.64C260.78 12.64 261.28 12.67 261.55 12.67C261.73 12.67 261.73 12.56 261.73 12.43C261.73 12.29 261.73 12.21 261.53 12.21L261.00 12.21C260.88 12.21 260.86 12.21 260.86 11.98C260.86 10.84 260.88 9.67 260.88 8.53C260.88 8.41 260.89 8.36 261.10 8.25C261.38 8.11 261.79 7.85 262.33 7.85C263.38 7.85 263.63 8.62 263.63 9.63C263.63 11.03 263.61 12.21 263.55 12.21L262.95 12.21C262.79 12.21 262.72 12.26 262.72 12.45C262.72 12.61 262.72 12.67 262.93 12.67C263.35 12.67 263.80 12.64 264.15 12.64C264.56 12.64 264.94 12.67 265.20 12.67C265.40 12.67 265.41 12.56 265.41 12.43C265.41 12.25 265.36 12.21 265.17 12.21L264.75 12.21C264.64 12.21 264.64 12.21 264.64 12.08C264.64 11.87 264.71 10.47 264.71 9.70C264.71 8.33 264.46 7.18 262.81 7.18C261.94 7.18 261.42 7.63 261.00 7.90C260.90 7.95 260.85 8.05 260.85 7.90L260.85 7.42C260.85 7.28 260.88 7.21 260.67 7.22C260.26 7.25 259.31 7.31 259.11 7.32C258.92 7.34 258.93 7.35 258.89 7.46C258.86 7.53 258.80 7.67 258.80 7.73ZM272.89 15.02C272.89 16.18 274.36 16.70 275.52 16.70C277.34 16.70 278.64 15.79 278.64 14.34C278.64 12.47 275.76 12.67 273.98 12.56C273.95 12.56 273.81 12.32 273.81 12.18C273.81 12.12 273.83 12.10 273.84 12.10C274.78 11.83 275.62 11.62 276.26 11.37C277.27 10.99 277.90 10.40 277.90 9.20C277.90 8.62 277.73 8.26 277.73 8.20C277.73 8.16 278.36 8.05 278.50 8.04C278.57 8.04 278.59 7.97 278.59 7.91C278.59 7.76 278.52 7.48 278.42 7.48C278.00 7.50 277.45 7.74 277.40 7.74C277.33 7.74 276.72 7.03 275.66 7.03C274.40 7.03 273.15 7.90 273.15 9.16C273.15 10.49 273.92 11.16 274.96 11.45C275.03 11.47 275.09 11.48 275.09 11.49C275.09 11.51 273.69 11.87 273.63 11.89C273.42 11.93 273.35 12.12 273.35 12.38C273.35 12.53 273.36 12.78 273.48 13.06C273.57 13.27 273.84 13.36 274.08 13.36L274.58 13.36C274.88 13.36 274.82 13.36 274.61 13.43C273.91 13.62 272.89 14.11 272.89 15.02ZM273.60 14.92C273.60 14.04 274.71 13.59 275.37 13.59C276.40 13.59 277.76 13.92 277.76 14.67C277.76 15.86 276.56 16.25 275.51 16.25C274.67 16.25 273.60 15.81 273.60 14.92ZM274.13 9.10C274.13 8.19 274.82 7.46 275.59 7.46C276.42 7.46 276.95 8.09 276.95 9.18C276.95 10.43 276.14 11.23 275.62 11.23C275.30 11.23 274.13 10.46 274.13 9.10Z"></path></g></svg>