<?xml version="1.0" standalone="no"?>
<!DOCTYPE svg PUBLIC "-//W3C//DTD SVG 20010904//EN"
 "http://www.w3.org/TR/2001/REC-SVG-20010904/DTD/svg10.dtd">
<svg version="1.0" xmlns="http://www.w3.org/2000/svg"
 width="3029.000000pt" height="4096.000000pt" viewBox="0 0 3029.000000 4096.000000"
 preserveAspectRatio="xMidYMid meet">
<metadata>
Created by potrace 1.15, written by Peter Selinger 2001-2017
</metadata>
<g transform="translate(0.000000,4096.000000) scale(0.100000,-0.100000)"
fill="#000000" stroke="none">
<path d="M5250 21764 c0 -8144 2 -9367 14 -9380 8 -8 28 -17 45 -20 16 -4 32
-12 35 -19 2 -7 25 -23 50 -36 25 -12 46 -26 46 -31 0 -4 9 -8 19 -8 11 0 21
-4 23 -9 4 -11 114 -81 128 -81 5 0 10 -4 10 -10 0 -5 6 -10 14 -10 7 0 19 -7
26 -15 7 -8 21 -15 31 -15 11 0 19 -4 19 -10 0 -5 5 -10 10 -10 6 0 21 -9 33
-20 12 -12 33 -24 47 -27 14 -3 32 -13 40 -22 8 -9 24 -21 35 -27 61 -33 91
-50 95 -54 12 -13 60 -40 71 -40 6 0 19 -8 28 -18 9 -10 35 -27 59 -37 23 -10
42 -22 42 -27 0 -4 7 -8 15 -8 8 0 15 -4 15 -10 0 -5 6 -10 13 -10 8 0 22 -9
31 -19 10 -11 29 -22 43 -26 13 -3 34 -15 46 -26 12 -11 38 -27 59 -36 21 -9
38 -20 38 -25 0 -4 7 -8 15 -8 8 0 15 -4 15 -8 0 -5 19 -17 43 -28 23 -10 50
-26 61 -36 10 -9 35 -25 55 -34 20 -9 38 -20 41 -23 3 -3 19 -13 35 -21 17 -8
36 -21 43 -27 7 -7 20 -13 28 -13 8 0 14 -4 14 -10 0 -5 7 -10 15 -10 8 0 15
-4 15 -9 0 -5 18 -17 40 -27 22 -10 40 -21 40 -26 0 -4 7 -8 15 -8 8 0 15 -4
15 -10 0 -5 7 -10 15 -10 9 0 26 -9 38 -20 12 -12 32 -23 44 -26 13 -4 23 -10
23 -15 0 -5 7 -9 15 -9 8 0 15 -4 15 -10 0 -5 7 -10 15 -10 8 0 15 -4 15 -8 0
-4 12 -13 28 -19 32 -14 81 -43 100 -61 7 -6 20 -12 28 -12 8 0 14 -4 14 -10
0 -5 9 -10 19 -10 10 0 21 -6 24 -14 3 -8 25 -24 49 -35 47 -23 75 -39 96 -58
7 -7 20 -13 28 -13 8 0 14 -4 14 -10 0 -5 9 -10 20 -10 11 0 20 -4 20 -8 0 -5
17 -17 37 -28 21 -10 46 -27 57 -37 11 -9 26 -17 33 -17 7 0 13 -3 13 -8 0 -4
9 -12 19 -17 11 -6 36 -19 58 -30 21 -10 45 -26 53 -34 8 -7 29 -20 46 -27 18
-7 38 -19 46 -26 12 -12 39 -28 103 -62 11 -6 22 -13 25 -16 12 -13 60 -40 71
-40 6 0 19 -8 28 -17 17 -19 85 -61 114 -70 9 -3 17 -9 17 -14 0 -5 6 -9 14
-9 7 0 19 -7 26 -15 7 -8 21 -15 30 -15 10 0 20 -4 22 -8 5 -13 111 -82 125
-82 7 0 13 -4 13 -10 0 -5 7 -10 15 -10 8 0 15 -3 15 -7 0 -9 57 -43 71 -43 6
0 19 -9 31 -20 11 -10 37 -27 57 -36 20 -9 38 -20 41 -23 3 -3 19 -13 35 -21
17 -8 36 -21 43 -27 7 -7 20 -13 28 -13 8 0 14 -4 14 -10 0 -5 6 -10 13 -10 8
0 22 -9 31 -19 10 -11 28 -22 42 -25 13 -4 24 -11 24 -16 0 -6 7 -10 15 -10 8
0 15 -3 15 -8 0 -4 20 -16 45 -27 25 -11 45 -23 45 -27 0 -5 5 -8 10 -8 6 0
20 -9 32 -20 12 -11 28 -20 35 -20 7 0 13 -4 13 -10 0 -5 6 -10 14 -10 8 0 21
-6 28 -12 7 -7 27 -20 43 -28 17 -8 36 -21 43 -27 7 -7 20 -13 28 -13 8 0 14
-4 14 -10 0 -5 6 -10 13 -10 8 0 22 -9 32 -20 10 -11 24 -20 31 -20 7 0 19 -6
26 -12 7 -7 27 -20 43 -28 17 -8 36 -21 43 -27 7 -7 20 -13 28 -13 8 0 14 -4
14 -10 0 -5 9 -10 20 -10 11 0 20 -4 20 -8 0 -5 17 -17 37 -28 21 -10 46 -27
57 -36 11 -10 26 -18 33 -18 7 0 13 -4 13 -10 0 -5 6 -10 14 -10 8 0 21 -6 28
-12 7 -7 25 -19 40 -27 15 -8 36 -21 45 -30 10 -9 37 -25 60 -36 24 -11 43
-23 43 -27 0 -5 7 -8 15 -8 8 0 15 -4 15 -8 0 -5 19 -16 43 -27 23 -10 44 -21
47 -24 10 -13 60 -41 71 -41 6 0 19 -8 28 -18 9 -9 33 -26 54 -37 20 -11 37
-23 37 -27 0 -5 9 -8 20 -8 11 0 20 -3 20 -7 0 -10 57 -43 74 -43 6 0 18 -9
26 -20 8 -11 20 -20 27 -20 7 0 13 -4 13 -9 0 -5 14 -12 30 -16 17 -4 30 -11
30 -16 0 -5 7 -9 15 -9 8 0 15 -4 15 -10 0 -5 7 -10 15 -10 8 0 15 -3 15 -7 0
-9 57 -43 72 -43 6 0 18 -8 27 -18 9 -10 32 -26 51 -35 43 -22 70 -38 88 -55
7 -7 17 -10 22 -7 4 3 10 -2 14 -10 3 -8 14 -15 25 -15 11 0 21 -3 23 -7 5
-12 61 -49 86 -57 12 -4 22 -12 22 -17 0 -5 7 -9 15 -9 8 0 15 -4 15 -10 0 -5
6 -10 14 -10 7 0 19 -7 26 -15 7 -8 21 -15 31 -15 11 0 19 -4 19 -10 0 -5 5
-10 10 -10 6 0 21 -9 33 -20 11 -11 38 -28 59 -37 21 -9 38 -20 38 -23 0 -3
16 -12 35 -20 19 -8 35 -17 35 -21 0 -4 10 -11 23 -15 12 -4 24 -9 27 -13 11
-13 67 -49 88 -55 12 -4 22 -11 22 -15 0 -4 16 -13 35 -21 19 -8 35 -17 35
-21 0 -4 10 -11 23 -15 12 -4 24 -9 27 -13 7 -9 40 -28 80 -49 19 -9 44 -25
54 -34 11 -10 26 -18 33 -18 7 0 13 -4 13 -10 0 -5 6 -10 14 -10 8 0 21 -6 28
-13 7 -6 25 -18 40 -26 15 -8 36 -21 46 -30 10 -9 31 -23 48 -32 52 -28 78
-44 92 -57 7 -6 20 -12 28 -12 8 0 14 -4 14 -10 0 -5 9 -10 20 -10 11 0 20 -3
20 -7 0 -10 58 -43 75 -43 7 0 15 -6 18 -14 3 -7 23 -22 45 -34 61 -32 85 -46
99 -59 7 -6 26 -17 43 -25 16 -7 30 -16 30 -20 0 -5 7 -8 15 -8 8 0 15 -4 15
-10 0 -5 7 -10 15 -10 8 0 15 -4 15 -9 0 -5 11 -12 25 -15 14 -4 25 -11 25
-16 0 -6 9 -10 20 -10 11 0 20 -4 20 -10 0 -5 7 -10 15 -10 8 0 15 -3 15 -7 0
-9 57 -43 72 -43 6 0 18 -8 27 -18 9 -10 33 -27 54 -38 73 -36 77 -39 77 -46
0 -5 6 -8 14 -8 7 0 19 -7 26 -15 7 -8 19 -15 27 -15 7 0 24 -9 36 -20 11 -11
38 -28 59 -37 21 -9 38 -20 38 -25 0 -4 7 -8 15 -8 8 0 15 -4 15 -10 0 -5 6
-10 14 -10 7 0 19 -7 26 -15 7 -8 21 -15 31 -15 11 0 19 -4 19 -10 0 -5 5 -10
10 -10 6 0 21 -9 33 -21 12 -11 34 -23 49 -26 15 -3 25 -9 22 -14 -3 -5 2 -9
10 -9 9 0 16 -3 16 -7 0 -5 10 -13 23 -19 35 -17 92 -49 97 -54 15 -15 71 -50
79 -50 5 0 16 -6 23 -13 7 -6 27 -19 43 -27 17 -8 36 -21 43 -28 7 -6 20 -12
28 -12 8 0 14 -4 14 -10 0 -5 6 -10 13 -10 8 0 22 -9 31 -19 10 -11 31 -23 47
-26 16 -4 27 -10 25 -14 -3 -4 10 -13 27 -21 18 -7 38 -20 45 -27 7 -7 20 -13
28 -13 8 0 14 -4 14 -10 0 -5 7 -10 15 -10 8 0 15 -3 15 -7 0 -5 19 -17 43
-28 23 -11 50 -27 60 -36 9 -9 30 -22 45 -30 15 -8 33 -20 40 -27 7 -6 20 -12
28 -12 8 0 14 -4 14 -10 0 -5 7 -10 16 -10 9 0 24 -8 33 -19 14 -16 38 -28 66
-32 6 -1 16 -10 23 -20 7 -11 20 -19 28 -19 8 0 14 -3 14 -7 0 -5 20 -17 45
-28 25 -11 45 -22 45 -25 0 -3 17 -14 38 -25 20 -11 46 -28 56 -37 11 -10 26
-18 33 -18 7 0 13 -4 13 -10 0 -5 6 -10 14 -10 8 0 21 -6 28 -13 7 -6 27 -19
43 -27 17 -8 36 -21 43 -28 7 -6 20 -12 28 -12 8 0 14 -4 14 -10 0 -5 7 -10
16 -10 9 0 24 -8 33 -18 9 -10 32 -26 51 -35 38 -19 72 -39 80 -47 12 -13 60
-40 71 -40 6 0 19 -8 28 -18 40 -45 145 -68 171 -37 7 8 17 15 23 15 5 0 17 8
26 18 9 11 27 22 41 25 14 3 35 15 47 27 12 11 27 20 33 20 5 0 10 5 10 10 0
6 8 10 19 10 10 0 24 7 31 15 7 8 19 15 26 15 8 0 14 5 14 10 0 6 6 10 13 10
7 0 22 8 33 17 11 10 36 27 57 37 20 11 37 23 37 28 0 4 9 8 20 8 11 0 20 4
20 8 0 4 25 21 55 36 30 16 52 33 49 38 -3 5 -2 7 3 6 16 -4 58 15 74 33 9 11
24 19 33 19 9 0 16 5 16 10 0 6 6 10 14 10 8 0 21 6 28 13 14 12 40 28 92 56
17 9 39 24 50 34 11 9 26 17 33 17 7 0 13 3 13 8 0 4 18 16 40 26 22 11 40 22
40 26 0 3 16 12 35 20 19 8 35 17 35 21 0 4 14 12 30 18 17 5 33 17 36 26 3 8
15 15 25 15 10 0 19 5 19 10 0 6 6 10 14 10 8 0 21 6 28 13 7 6 27 19 43 27
17 8 36 21 43 28 7 6 18 12 23 12 8 0 65 36 79 50 3 3 21 13 40 22 40 20 73
40 80 49 3 3 21 14 41 23 20 9 45 25 55 34 11 9 37 26 58 37 68 35 76 40 76
47 0 5 7 8 15 8 8 0 15 4 15 8 0 5 19 17 43 27 23 10 49 27 58 37 9 10 22 18
28 18 11 0 59 27 71 40 4 4 34 21 95 54 11 6 27 19 36 29 9 9 21 17 27 17 15
0 72 34 72 43 0 4 7 7 15 7 8 0 15 3 15 8 0 4 20 16 45 27 25 11 45 23 45 27
0 5 7 8 15 8 8 0 15 4 15 8 0 5 17 16 38 25 21 9 48 26 59 37 12 11 29 20 38
20 8 0 15 4 15 8 0 5 21 19 46 31 25 13 48 29 51 37 3 8 12 14 19 14 14 0 63
27 74 41 3 3 24 14 48 24 23 11 42 22 42 27 0 4 7 8 15 8 8 0 15 3 15 8 0 4
19 16 43 27 23 11 51 28 61 37 11 10 26 18 33 18 7 0 13 3 13 8 0 4 18 16 40
26 22 11 40 22 40 25 0 4 20 15 45 26 25 11 45 23 45 28 0 4 6 7 13 7 7 0 19
9 27 20 8 11 22 20 32 20 10 0 18 4 18 9 0 5 11 12 25 15 14 4 25 11 25 16 0
6 9 10 20 10 11 0 20 4 20 9 0 5 17 17 38 28 37 18 92 53 102 63 3 3 19 12 35
21 50 26 79 43 93 56 7 7 20 13 28 13 8 0 14 5 14 10 0 6 6 10 13 10 7 0 22 8
33 17 10 10 37 27 58 38 68 35 76 40 76 47 0 5 6 8 14 8 8 0 21 6 28 12 7 7
27 20 43 28 17 8 37 23 46 32 9 10 21 18 27 18 15 0 72 34 72 43 0 4 7 7 15 7
8 0 15 4 15 8 0 5 19 17 43 27 23 10 49 27 58 37 9 10 21 18 27 18 15 0 72 34
72 43 0 4 7 7 15 7 8 0 15 4 15 8 0 4 12 13 28 19 32 14 81 43 100 61 7 6 18
12 23 12 11 0 72 41 77 53 2 4 12 7 23 7 10 0 19 4 19 10 0 5 11 12 25 16 14
3 25 10 25 15 0 5 6 9 13 9 7 0 19 9 27 20 8 11 20 20 26 20 17 0 74 33 74 43
0 4 9 7 20 7 11 0 20 3 20 8 0 7 30 25 63 38 9 3 17 10 17 15 0 5 5 9 10 9 6
0 41 19 78 42 80 51 102 65 122 74 8 4 17 10 20 13 4 5 32 21 95 55 11 6 27
19 36 29 9 9 24 17 33 17 9 0 16 5 16 10 0 6 6 10 14 10 8 0 21 6 28 13 7 6
27 19 43 27 17 8 36 21 43 28 7 6 19 12 26 12 7 0 21 9 31 20 10 11 24 20 32
20 7 0 13 5 13 10 0 6 6 10 14 10 8 0 21 6 28 13 7 6 27 19 43 27 17 8 36 21
43 28 7 6 20 12 28 12 8 0 14 5 14 10 0 6 6 10 13 10 7 0 22 8 33 18 11 9 36
26 57 36 20 11 37 23 37 28 0 4 9 8 20 8 11 0 20 5 20 10 0 6 6 10 14 10 8 0
21 6 28 13 7 7 27 20 45 27 17 8 29 18 27 22 -3 4 2 8 10 8 9 0 16 5 16 10 0
6 9 10 20 10 11 0 23 7 26 15 4 8 15 15 25 15 10 0 19 5 19 10 0 6 7 10 15 10
8 0 15 4 15 8 0 5 17 16 38 25 21 9 47 25 57 34 11 10 39 27 63 37 23 11 42
23 42 28 0 4 7 8 15 8 8 0 15 4 15 8 0 4 12 13 28 19 32 14 81 43 100 61 7 6
19 12 26 12 7 0 21 9 31 20 10 11 24 20 32 20 7 0 13 4 13 9 0 5 11 12 25 15
14 4 25 11 25 16 0 6 9 10 20 10 11 0 20 5 20 10 0 6 5 10 11 10 7 0 19 8 28
19 9 10 30 21 47 25 16 4 36 16 44 26 8 11 22 20 32 20 10 0 18 3 18 8 0 7 30
25 63 38 9 3 17 10 17 15 0 5 7 9 15 9 8 0 15 4 15 9 0 5 10 11 23 15 12 3 32
14 44 26 12 11 27 20 33 20 5 0 10 5 10 10 0 6 8 10 19 10 10 0 24 7 31 15 7
8 19 15 26 15 8 0 14 4 14 9 0 5 8 11 18 14 28 9 96 51 113 70 9 9 22 17 28
17 11 0 59 27 71 40 3 3 19 12 35 20 17 8 36 21 43 28 7 6 19 12 26 12 6 0 18
9 26 20 8 11 22 20 32 20 10 0 18 5 18 10 0 6 6 10 14 10 8 0 21 6 28 13 19
17 68 46 101 60 15 6 27 15 27 19 0 4 6 8 13 8 7 0 22 8 33 18 11 9 36 26 57
36 20 11 37 23 37 28 0 4 9 8 20 8 11 0 20 4 20 9 0 5 10 13 23 17 12 4 24 9
27 13 5 6 35 24 85 50 16 9 37 24 46 34 9 9 24 17 33 17 9 0 16 5 16 10 0 6 7
10 15 10 8 0 15 4 15 8 0 5 17 16 38 25 21 9 47 25 57 34 11 10 36 26 55 35
36 19 71 39 80 48 3 3 22 13 42 24 20 10 46 27 57 37 10 10 31 21 44 24 14 4
33 15 43 26 9 10 23 19 31 19 7 0 13 5 13 10 0 6 6 10 14 10 8 0 21 6 28 13 7
6 27 19 43 27 17 8 36 21 43 28 7 6 18 12 23 12 8 0 65 36 79 50 9 9 85 51
103 57 9 3 17 9 17 14 0 5 7 9 16 9 8 0 13 4 10 9 -3 5 7 11 22 14 15 3 37 15
49 26 12 12 27 21 33 21 5 0 10 5 10 10 0 6 8 10 19 10 10 0 24 7 31 15 7 8
19 15 26 15 8 0 14 5 14 10 0 6 7 10 15 10 8 0 15 4 15 8 0 5 17 16 38 25 21
9 48 26 59 37 12 11 29 20 36 20 8 0 20 7 27 15 7 8 19 15 26 15 8 0 14 4 14
9 0 5 8 11 18 14 28 9 96 51 113 70 9 9 24 17 33 17 9 0 16 4 16 9 0 5 11 12
25 15 14 4 25 11 25 16 0 6 7 10 15 10 8 0 15 5 15 10 0 6 9 10 20 10 11 0 20
4 20 9 0 5 9 13 21 16 12 4 30 14 40 23 19 16 19 205 19 9379 l0 9363 -9895 0
-9895 0 0 -9366z m19010 4041 c0 -2527 -4 -4595 -8 -4595 -7 0 -123 119 -297
304 -83 88 -357 377 -410 432 -33 34 -116 122 -185 195 -69 73 -168 177 -220
232 -52 55 -113 119 -135 142 -228 241 -499 525 -647 680 -58 61 -129 136
-159 169 -30 32 -88 93 -129 136 -41 43 -140 147 -220 231 -357 377 -465 489
-472 489 -4 0 -27 -21 -50 -47 -24 -26 -80 -84 -124 -130 -45 -46 -108 -111
-139 -146 -32 -34 -114 -120 -183 -192 l-125 -129 -51 56 c-28 30 -76 84 -106
119 -117 135 -143 164 -205 234 -11 12 -45 50 -75 85 -30 35 -62 71 -70 79
-14 16 -136 153 -189 215 -14 16 -42 48 -62 70 -72 81 -135 153 -189 215 -59
68 -62 72 -156 177 -34 38 -72 82 -86 98 l-24 29 -35 -18 c-19 -10 -36 -21
-39 -24 -7 -9 -88 -61 -95 -61 -3 0 -27 -15 -53 -33 -26 -18 -54 -36 -62 -40
-8 -4 -35 -20 -60 -36 -25 -17 -69 -44 -99 -61 -29 -17 -59 -36 -65 -41 -25
-21 -167 -109 -176 -109 -5 0 -10 -4 -10 -8 0 -5 -15 -16 -33 -25 -17 -10 -45
-26 -62 -37 -16 -11 -43 -27 -60 -36 -16 -9 -46 -30 -66 -45 -20 -16 -40 -29
-44 -29 -4 0 -38 -20 -76 -45 -38 -25 -71 -45 -74 -45 -3 0 -27 -16 -55 -35
l-49 -35 -75 78 c-40 42 -87 93 -102 112 -16 19 -45 51 -64 70 -19 20 -73 79
-120 130 -84 93 -191 210 -220 241 -8 9 -46 51 -85 94 -38 43 -86 95 -105 115
-19 20 -75 81 -125 136 -49 54 -96 106 -105 115 -8 9 -49 53 -90 99 -41 45
-91 99 -110 120 -19 20 -75 81 -125 136 -49 54 -96 106 -105 115 -8 9 -51 55
-95 104 -44 48 -93 102 -110 119 -16 17 -64 69 -105 115 -41 46 -88 98 -105
116 -16 17 -66 71 -110 120 -44 48 -87 95 -95 104 -9 9 -56 61 -105 115 -50
55 -103 114 -120 131 -16 18 -66 72 -110 120 -92 101 -105 115 -109 115 -2 0
-37 -44 -77 -97 -41 -54 -78 -104 -84 -110 -5 -7 -19 -24 -30 -39 -11 -14 -27
-33 -36 -42 -9 -10 -35 -44 -59 -77 -43 -59 -158 -206 -183 -235 -21 -24 -230
-299 -249 -327 -9 -14 -20 -29 -25 -32 -5 -3 -40 -46 -78 -96 -38 -49 -73 -94
-77 -100 -5 -5 -22 -28 -38 -50 -57 -76 -65 -86 -81 -103 -9 -9 -57 -71 -107
-137 -50 -66 -128 -168 -174 -226 -46 -58 -92 -118 -103 -133 -11 -16 -28 -38
-37 -50 -10 -11 -40 -50 -68 -86 -27 -36 -53 -69 -58 -75 -7 -8 -108 -139
-119 -155 -4 -5 -161 48 -178 60 -5 4 -23 10 -40 14 -16 4 -43 13 -60 20 -46
20 -137 54 -165 61 -14 4 -29 11 -35 15 -5 5 -29 13 -53 20 -24 6 -49 13 -57
16 -8 3 -56 -52 -131 -153 -65 -87 -250 -336 -412 -553 -254 -341 -324 -434
-364 -485 -5 -5 -24 -32 -44 -58 -42 -57 -26 -67 -160 100 -48 59 -92 113 -98
118 -6 6 -27 30 -46 55 -39 50 -56 71 -85 105 -11 12 -29 35 -39 49 -11 15
-28 37 -39 49 -11 12 -32 37 -47 56 l-28 33 -58 -39 c-33 -21 -83 -56 -111
-76 -29 -20 -55 -37 -58 -37 -5 0 -111 -74 -140 -97 -5 -5 -35 -24 -65 -43
-30 -19 -59 -38 -65 -43 -5 -4 -32 -22 -60 -39 -27 -18 -52 -35 -55 -38 -3 -3
-66 -46 -140 -95 -74 -49 -139 -93 -145 -98 -5 -4 -28 -19 -50 -34 -22 -15
-68 -46 -103 -70 -73 -49 -87 -52 -103 -20 -7 12 -15 24 -18 27 -4 3 -25 27
-46 55 -22 27 -44 55 -50 62 -5 6 -26 30 -45 54 -19 24 -42 50 -50 59 -8 9
-27 32 -42 52 -15 20 -36 44 -45 54 -10 10 -31 34 -46 53 -28 35 -81 97 -177
206 -25 28 -62 71 -84 96 -289 330 -528 564 -654 638 -53 31 -92 40 -92 21 0
-5 -5 -10 -11 -10 -13 0 -90 -63 -178 -145 -95 -87 -548 -544 -746 -750 -104
-109 -242 -253 -306 -319 -63 -67 -138 -145 -165 -175 -27 -30 -76 -82 -109
-116 -53 -54 -263 -277 -326 -346 -35 -38 -227 -244 -274 -294 -67 -71 -251
-268 -276 -296 -24 -26 -200 -216 -274 -294 -37 -40 -137 -149 -281 -304 -33
-36 -83 -90 -110 -120 -27 -30 -65 -71 -84 -91 -19 -20 -75 -81 -125 -135 -49
-54 -111 -122 -137 -149 -25 -28 -67 -73 -92 -101 l-46 -50 0 4593 0 4592
9115 0 9115 0 0 -4595z m-8289 595 c30 -39 63 -81 74 -94 11 -13 31 -39 45
-57 14 -18 48 -60 76 -94 28 -33 71 -88 96 -122 25 -34 52 -69 59 -77 8 -9 23
-27 34 -42 11 -14 25 -31 30 -37 18 -20 99 -122 125 -157 14 -18 30 -38 35
-44 6 -6 32 -40 59 -76 27 -36 57 -73 65 -82 25 -27 39 -44 93 -116 28 -37 58
-74 67 -83 9 -9 25 -29 36 -44 38 -53 105 -137 145 -184 8 -9 37 -46 64 -82
28 -35 56 -71 63 -79 13 -15 428 -538 504 -635 21 -27 45 -57 52 -65 11 -12
233 -292 413 -520 24 -30 50 -62 57 -70 7 -8 35 -44 62 -80 27 -36 52 -67 55
-70 9 -6 129 -157 155 -194 11 -16 29 -39 40 -52 11 -13 31 -38 45 -55 14 -18
40 -51 58 -73 18 -23 43 -54 55 -69 12 -15 27 -33 32 -40 6 -7 32 -41 59 -77
52 -69 63 -82 94 -116 11 -12 38 -46 60 -77 23 -30 52 -67 64 -80 13 -14 32
-38 43 -53 41 -56 138 -179 149 -189 6 -5 33 -39 60 -75 28 -36 56 -72 63 -80
27 -30 153 -193 153 -197 0 -5 -80 40 -185 104 -38 23 -83 49 -100 58 -16 8
-42 23 -57 32 -15 10 -89 54 -165 97 -76 44 -140 82 -143 85 -3 3 -18 13 -35
21 -16 8 -32 17 -35 20 -3 3 -81 50 -175 104 -93 55 -181 105 -195 113 -14 8
-41 25 -61 36 -20 12 -95 55 -165 96 -71 41 -136 79 -144 86 -43 34 -46 32
-249 -169 -108 -106 -292 -289 -409 -404 -118 -117 -218 -209 -225 -206 -7 3
-31 33 -54 67 -23 34 -95 140 -160 235 -65 95 -122 180 -128 189 -5 9 -17 24
-25 34 -32 38 -40 48 -40 54 0 8 -59 93 -77 112 -6 7 -15 22 -18 33 -10 30
-46 34 -205 21 -80 -6 -253 -20 -385 -31 -132 -11 -350 -29 -485 -41 -135 -11
-281 -22 -325 -25 l-80 -5 30 27 c76 67 96 84 195 163 58 46 113 91 122 100
43 39 59 53 163 136 61 49 112 91 115 95 3 3 55 46 115 95 61 49 119 97 130
107 11 9 48 41 83 69 34 29 62 58 62 64 0 7 -8 39 -19 71 -10 33 -22 79 -26
104 -4 25 -11 50 -15 55 -4 6 -13 42 -20 80 -7 39 -15 75 -19 80 -3 6 -14 42
-23 80 -9 39 -26 106 -37 150 -11 44 -28 112 -36 150 -9 39 -20 79 -25 90 -5
11 -13 40 -19 65 -5 25 -21 90 -36 145 -15 55 -33 125 -40 155 -22 93 -45 183
-59 235 -8 28 -18 68 -22 90 -10 61 -17 65 -113 65 -98 1 -280 16 -288 24 -3
3 56 128 133 278 76 150 206 408 288 573 83 165 154 302 157 305 3 3 8 13 12
23 3 9 10 17 15 17 5 0 33 -32 63 -70z m-6299 -1983 c4 -28 15 -108 23 -176 9
-68 18 -127 20 -130 2 -4 11 -71 20 -151 9 -80 18 -147 20 -150 2 -3 8 -53 14
-110 7 -58 18 -148 26 -200 8 -52 17 -116 21 -143 l5 -47 182 -120 c100 -66
189 -125 197 -130 8 -6 74 -49 145 -95 72 -47 137 -89 145 -95 8 -5 38 -24 65
-42 28 -18 55 -36 60 -40 31 -24 112 -79 125 -85 8 -3 134 -85 280 -182 297
-197 285 -189 331 -215 19 -10 36 -22 39 -26 3 -4 20 -15 38 -24 18 -9 36 -24
39 -32 3 -9 -27 -45 -88 -102 -51 -48 -143 -135 -204 -193 -60 -58 -132 -126
-159 -150 -28 -24 -70 -65 -95 -91 -24 -27 -48 -48 -53 -48 -9 0 -68 39 -78
51 -3 3 -16 12 -29 19 -14 7 -30 17 -35 22 -11 9 -136 98 -166 118 -45 29
-100 67 -135 92 -22 15 -62 44 -90 63 -27 20 -93 64 -145 100 l-95 63 -70 -18
c-127 -33 -379 -98 -460 -120 -44 -11 -93 -24 -110 -29 -16 -5 -77 -22 -135
-36 -58 -15 -114 -31 -125 -35 -11 -5 -49 -15 -85 -24 -36 -8 -99 -24 -140
-35 -41 -11 -111 -29 -155 -41 -182 -48 -186 -48 -160 -15 9 11 45 61 80 110
99 139 137 191 180 249 22 30 47 64 55 76 22 32 147 203 158 216 5 5 15 21 22
34 13 24 24 39 51 69 8 10 19 24 22 32 4 8 22 34 41 59 45 59 116 160 116 165
0 3 -75 47 -214 124 -33 19 -63 37 -66 41 -3 4 -15 10 -27 14 -13 4 -29 13
-36 19 -7 7 -22 17 -32 23 -31 18 -23 49 49 197 36 74 66 140 66 146 0 6 4 11
8 11 5 0 15 18 22 40 7 22 17 40 22 40 4 0 8 4 8 10 0 10 62 142 200 425 118
244 237 489 255 528 10 21 20 35 23 32 3 -3 9 -29 14 -58z m3973 -9 c41 -54
48 -64 75 -95 8 -9 45 -56 82 -103 37 -47 73 -92 81 -100 7 -8 35 -44 63 -80
27 -36 52 -67 55 -70 3 -3 45 -54 92 -115 48 -60 93 -117 99 -125 7 -8 44 -53
81 -100 37 -47 80 -100 95 -118 39 -48 40 -56 6 -48 -29 7 -204 31 -444 60
-214 26 -259 36 -265 60 -52 191 -75 246 -104 257 -31 12 -103 44 -149 67 -37
19 -37 30 -1 109 10 23 19 45 19 48 0 3 8 25 19 48 10 23 30 74 45 112 15 39
31 79 36 90 5 11 12 31 15 43 12 41 46 112 53 112 5 0 26 -24 47 -52z m5962
-75 c20 -32 40 -60 43 -63 6 -5 157 -227 175 -258 6 -9 33 -48 60 -87 48 -67
239 -348 260 -383 6 -9 14 -21 18 -26 60 -80 106 -153 103 -163 -3 -7 -47 -69
-98 -138 -167 -226 -177 -239 -212 -290 -19 -27 -46 -63 -60 -79 -14 -16 -28
-37 -31 -47 -4 -11 -11 -19 -16 -19 -5 0 -12 -8 -16 -17 -3 -10 -12 -25 -20
-33 -7 -8 -27 -33 -43 -55 -50 -68 -53 -70 -58 -54 -3 8 -16 39 -29 69 -14 30
-32 71 -40 90 -8 19 -21 49 -28 65 -8 17 -35 80 -61 140 -25 61 -54 128 -64
150 -38 87 -49 112 -75 175 -14 36 -35 84 -46 108 -24 53 -58 131 -69 157 -5
11 -20 45 -33 75 -14 31 -29 68 -32 83 -4 15 -10 27 -14 27 -10 0 -31 69 -25
83 3 7 27 26 55 42 27 17 59 37 69 45 11 8 50 34 88 58 68 42 69 43 85 105 9
34 19 78 22 97 5 31 32 154 41 188 5 20 11 15 51 -45z m-7642 -510 c3 -21 15
-78 25 -128 11 -49 24 -117 30 -150 11 -63 29 -87 120 -156 19 -15 47 -37 61
-50 15 -13 46 -40 69 -59 23 -19 52 -43 64 -55 12 -11 34 -30 49 -40 l27 -20
-10 -130 c-23 -316 -30 -401 -32 -414 -2 -8 -22 2 -59 30 -31 24 -68 53 -84
64 -26 19 -42 32 -91 72 -12 10 -36 29 -54 43 -149 113 -238 181 -254 196 -16
15 -250 195 -314 242 -13 9 -36 27 -50 40 -15 12 -33 27 -39 33 -7 5 -13 13
-13 17 0 4 39 43 87 87 48 44 121 112 163 151 41 39 99 93 129 120 30 27 78
70 105 96 28 26 54 48 58 48 4 0 10 -17 13 -37z m9683 -278 c31 -44 71 -100
87 -125 17 -24 37 -52 45 -61 8 -8 22 -26 30 -38 22 -33 188 -264 198 -277 5
-5 15 -21 22 -34 7 -14 18 -30 24 -36 26 -29 157 -210 211 -292 6 -8 16 -22
23 -31 8 -9 31 -41 53 -71 22 -30 47 -64 55 -75 22 -31 112 -158 126 -179 7
-10 24 -33 38 -51 14 -18 32 -43 40 -55 25 -36 221 -310 308 -428 7 -9 53 -73
102 -142 49 -69 96 -134 105 -145 22 -28 19 -35 -12 -25 -112 35 -511 172
-523 179 -9 5 -30 12 -49 16 -18 4 -44 13 -59 21 -15 8 -33 14 -40 14 -8 0
-28 6 -45 14 -18 7 -77 28 -132 45 -55 18 -114 39 -131 46 -31 14 -159 21
-890 49 -193 7 -356 16 -362 20 -8 5 -8 13 -2 24 5 9 16 51 24 92 31 153 51
245 57 255 4 6 13 45 19 88 7 43 17 80 21 83 5 3 9 15 9 27 0 11 10 61 22 109
l21 88 46 0 c25 -1 66 -5 91 -10 25 -5 115 -16 200 -25 85 -9 163 -18 173 -21
23 -7 271 -32 276 -28 2 2 -2 23 -8 46 -7 24 -21 75 -31 113 -10 39 -29 106
-40 150 -12 44 -28 105 -35 135 -8 30 -26 100 -40 155 -15 55 -33 125 -40 155
-7 30 -22 89 -33 130 -73 268 -75 263 46 95z m-6413 -3835 c66 -134 94 -182
109 -185 12 -2 102 -16 201 -30 99 -15 181 -28 183 -29 1 -2 -63 -67 -144
-144 l-146 -140 31 -185 c17 -102 31 -193 31 -202 0 -12 -45 7 -180 77 l-180
93 -180 -93 c-161 -84 -180 -91 -180 -72 0 12 14 102 31 202 l32 180 -147 140
c-81 77 -146 142 -144 143 2 2 84 15 183 29 99 15 189 29 200 31 15 3 45 54
110 185 49 99 92 180 95 180 3 0 46 -81 95 -180z m-1297 -133 c39 -57 77 -109
85 -115 8 -7 66 -12 150 -14 l136 -3 -84 -111 -85 -110 44 -132 c33 -97 41
-132 31 -132 -8 0 -65 18 -127 40 -62 22 -119 40 -127 40 -7 0 -62 -36 -122
-80 -61 -45 -111 -75 -115 -69 -3 5 -4 69 -2 141 l3 131 -113 83 c-131 96
-136 81 46 134 l112 33 43 133 c23 74 45 134 48 134 3 0 38 -46 77 -103z
m2530 -30 l42 -134 135 -39 c74 -21 135 -41 135 -44 0 -3 -51 -42 -114 -87
l-113 -82 5 -141 c3 -77 3 -140 0 -140 -2 0 -55 38 -118 84 l-115 84 -35 -14
c-132 -51 -230 -81 -230 -70 0 7 18 66 40 131 22 65 40 122 40 126 0 4 -38 57
-85 118 l-86 111 144 0 144 0 79 115 c44 63 82 115 85 115 3 0 24 -60 47 -133z
m-3468 -225 l46 -52 87 11 c138 17 136 19 73 -85 l-53 -89 44 -95 c24 -52 42
-96 40 -99 -2 -2 -43 6 -91 17 -48 11 -96 20 -108 20 -13 0 -49 -26 -89 -65
-37 -36 -72 -65 -77 -65 -5 0 -13 45 -17 100 -8 114 -6 110 -122 169 -34 17
-64 35 -67 40 -3 5 38 27 92 50 l98 42 18 87 c9 48 20 96 23 106 6 22 -1 28
103 -92z m4404 22 c26 -129 22 -124 130 -168 53 -22 93 -43 89 -47 -5 -4 -46
-28 -93 -52 l-85 -45 -8 -69 c-4 -37 -10 -87 -13 -111 l-5 -43 -82 74 -82 74
-99 -24 c-55 -13 -101 -21 -104 -18 -3 2 14 47 38 99 l42 95 -52 86 c-29 47
-49 89 -46 92 4 4 50 1 104 -5 l97 -12 67 73 c37 39 67 75 68 80 0 4 4 7 9 7
4 0 16 -39 25 -86z m-6274 -2324 c47 -12 127 -42 179 -67 79 -38 108 -59 181
-131 174 -173 237 -365 228 -690 -3 -117 -4 -123 -31 -149 l-27 -28 -190 0
-190 0 -27 28 c-28 27 -28 28 -34 200 -5 133 -10 181 -24 212 -30 68 -56 97
-114 124 -53 24 -65 26 -206 26 -142 0 -153 -1 -207 -27 -38 -18 -67 -40 -88
-69 -63 -87 -61 -54 -58 -1055 l3 -909 24 -48 c55 -111 133 -149 311 -151 194
-1 274 33 326 141 29 58 29 59 29 253 0 279 -13 300 -190 300 -93 0 -98 1
-126 29 l-29 29 0 186 0 186 29 32 29 33 366 0 366 0 27 -28 28 -27 3 -418 c2
-239 -1 -458 -7 -513 -37 -343 -237 -580 -567 -671 -68 -18 -106 -22 -269 -22
-169 -1 -199 2 -274 22 -282 77 -471 266 -549 550 l-27 97 0 955 0 955 27 96
c14 53 38 120 53 150 111 220 316 368 565 409 41 6 82 13 90 15 45 11 292 -6
370 -25z m6785 5 c331 -78 480 -346 488 -875 l2 -161 -33 -30 -32 -29 -181 0
c-189 0 -227 7 -245 47 -4 10 -10 115 -14 233 -5 215 -5 215 -35 269 -44 80
-83 105 -170 109 -113 6 -176 -36 -205 -138 -6 -19 -15 -97 -22 -173 -13 -162
-4 -239 39 -324 38 -75 192 -236 306 -320 110 -80 328 -290 402 -388 155 -203
204 -386 184 -680 -22 -328 -111 -545 -271 -658 -127 -89 -235 -119 -439 -118
-207 0 -311 25 -436 103 -190 120 -282 371 -286 780 l-2 177 28 28 27 28 196
0 196 0 22 -26 c22 -25 24 -37 29 -225 6 -233 20 -295 76 -354 62 -64 187 -77
262 -27 74 50 99 138 99 357 0 150 -1 157 -29 215 -52 112 -198 273 -347 386
-107 80 -284 261 -379 386 -86 115 -149 244 -171 353 -13 68 -15 112 -10 230
12 256 39 388 107 527 90 186 234 279 494 317 62 9 282 -3 350 -19z m-10370
-39 c18 -8 38 -23 44 -34 7 -13 11 -92 11 -206 0 -181 -1 -185 -24 -213 l-24
-28 -294 -5 c-325 -6 -340 -8 -375 -73 -16 -29 -18 -68 -18 -412 0 -432 0
-430 78 -466 37 -16 68 -19 270 -19 231 0 257 -4 284 -39 9 -11 12 -72 13
-206 0 -214 -3 -227 -68 -245 -20 -5 -136 -10 -258 -10 -214 0 -222 -1 -255
-23 -61 -41 -64 -55 -64 -322 0 -267 3 -281 64 -322 33 -23 39 -23 306 -23
168 0 284 -4 303 -11 57 -20 62 -38 62 -244 l0 -187 -29 -29 -29 -29 -557 0
-557 0 -29 29 -29 29 0 1519 c1 1646 -3 1537 56 1568 42 22 1066 23 1119 1z
m1524 -10 c11 -10 25 -41 31 -70 18 -85 490 -2956 490 -2981 0 -13 -11 -37
-24 -52 l-24 -28 -181 -3 c-117 -2 -187 1 -200 8 -29 15 -47 55 -55 120 -11
82 -37 133 -79 153 -28 13 -65 17 -176 17 -211 0 -228 -11 -257 -168 -24 -133
-22 -132 -238 -132 -185 0 -209 6 -235 52 -18 31 -39 -105 268 1745 228 1377
222 1345 275 1356 11 3 103 4 202 4 162 -2 184 -4 203 -21z m3676 10 c18 -8
38 -23 44 -34 8 -15 11 -377 11 -1209 0 -729 4 -1211 10 -1248 10 -63 29 -96
74 -129 25 -19 46 -21 211 -26 l185 -5 27 -28 28 -27 3 -174 c4 -192 -5 -232
-54 -255 -17 -8 -159 -11 -470 -11 l-446 0 -29 29 -29 29 0 1519 c1 1646 -3
1537 56 1568 40 21 329 22 379 1z m2452 -19 l28 -27 3 -177 c2 -118 -1 -185
-8 -204 -24 -57 -27 -58 -396 -61 -328 -3 -340 -4 -380 -25 -30 -16 -49 -36
-65 -70 -23 -47 -24 -55 -24 -308 0 -143 4 -277 8 -297 4 -21 20 -52 34 -69
52 -61 63 -63 440 -67 l341 -4 24 -25 c22 -24 23 -32 26 -200 3 -179 -2 -217
-36 -245 -11 -10 -100 -14 -361 -18 -326 -5 -348 -6 -386 -26 -26 -13 -49 -36
-65 -65 -24 -43 -25 -51 -28 -274 -6 -320 6 -383 82 -439 26 -20 44 -21 381
-26 l355 -5 27 -28 28 -27 3 -177 c2 -121 0 -185 -9 -205 -25 -61 5 -58 -677
-58 l-624 0 -29 29 -29 29 0 1519 c1 1646 -3 1537 56 1568 25 13 107 15 641
13 l613 -3 27 -28z m4888 19 c18 -8 38 -23 44 -34 7 -13 11 -92 11 -206 0
-181 -1 -185 -24 -213 -24 -27 -28 -28 -148 -33 -139 -6 -188 -25 -224 -83
-18 -31 -19 -74 -24 -1272 -5 -1341 -2 -1269 -57 -1294 -14 -7 -97 -11 -203
-11 -175 0 -180 1 -207 24 l-28 24 -5 1244 c-5 1230 -5 1243 -26 1283 -34 66
-83 85 -227 85 -118 0 -119 0 -148 29 l-29 29 0 185 c0 184 0 186 25 216 14
16 36 32 48 34 12 2 284 5 605 6 482 1 588 -1 617 -13z m1254 -10 c11 -10 25
-41 31 -70 18 -85 490 -2956 490 -2981 0 -13 -11 -37 -24 -52 l-24 -28 -181
-3 c-117 -2 -187 1 -200 8 -29 15 -47 55 -55 120 -11 82 -37 133 -79 153 -28
13 -65 17 -176 17 -211 0 -228 -11 -257 -168 -24 -133 -22 -132 -238 -132
-185 0 -209 6 -235 52 -18 31 -39 -105 268 1745 228 1377 222 1345 275 1356
11 3 103 4 202 4 162 -2 184 -4 203 -21z m2100 0 c109 -28 197 -81 291 -176
176 -176 260 -403 260 -704 0 -225 -37 -391 -130 -575 -27 -55 -52 -117 -56
-139 -7 -43 12 -96 67 -186 62 -100 62 -95 69 -641 5 -320 11 -514 18 -540 20
-71 15 -113 -17 -146 l-29 -29 -178 0 -177 0 -35 37 c-68 73 -66 57 -73 598
-4 346 -9 501 -18 529 -17 53 -86 119 -147 140 -27 9 -83 19 -125 23 -99 8
-139 -10 -171 -75 l-23 -47 -3 -570 c-2 -387 -6 -577 -13 -591 -20 -38 -51
-44 -240 -44 l-181 0 -29 29 -29 29 0 1519 c1 1646 -3 1536 56 1568 44 24 818
16 913 -9z m-9703 -4981 c28 -16 49 -39 63 -68 20 -40 21 -60 21 -284 0 -231
-1 -241 -23 -283 -64 -121 -260 -121 -324 0 -24 44 -24 49 -21 296 l3 251 26
40 c35 51 79 72 153 73 45 0 69 -6 102 -25z m4424 3 c52 -36 70 -69 82 -146
14 -87 5 -102 -56 -102 -22 0 -46 4 -52 8 -6 4 -13 33 -16 65 -6 68 -32 104
-67 92 -28 -9 -41 -35 -43 -91 -2 -45 0 -49 51 -93 174 -150 197 -185 185
-287 -13 -109 -68 -166 -168 -172 -79 -5 -127 15 -164 71 -22 33 -26 50 -27
116 l0 76 55 0 55 0 11 -69 c10 -63 29 -96 55 -96 22 0 51 40 56 77 8 64 -11
98 -81 145 -132 88 -161 134 -154 244 8 128 62 184 178 184 53 0 74 -5 100
-22z m-5821 -3 c66 -34 101 -104 101 -205 0 -136 -66 -220 -173 -220 -76 0
-81 -10 -87 -157 l-5 -128 -50 0 -50 0 -3 350 c-1 192 0 356 3 362 7 19 227
18 264 -2z m701 -3 c53 -26 73 -71 78 -171 3 -73 0 -96 -21 -151 -24 -64 -24
-67 -7 -100 13 -27 19 -66 21 -160 l4 -125 -52 -3 c-62 -4 -61 -8 -65 149 -4
117 -13 139 -57 139 -58 0 -66 -16 -71 -157 l-5 -128 -50 0 -50 0 -3 350 c-1
192 0 356 3 362 8 21 231 17 275 -5z m1399 3 c66 -34 101 -104 101 -205 0
-136 -66 -220 -173 -220 -76 0 -81 -10 -87 -157 l-5 -128 -50 0 -50 0 -3 350
c-1 192 0 356 3 362 7 19 227 18 264 -2z m705 -1 c3 -9 6 -26 6 -39 0 -50 -8
-55 -80 -55 -93 0 -100 -8 -100 -115 0 -105 8 -115 91 -115 l59 0 0 -55 0 -55
-59 0 c-73 0 -91 -15 -91 -73 0 -83 4 -87 80 -87 79 0 100 -14 100 -63 0 -57
-4 -58 -151 -55 l-134 3 -3 350 c-1 192 0 356 3 362 3 10 40 13 139 13 113 0
135 -2 140 -16z m616 -2 c53 -26 73 -71 78 -171 3 -73 0 -96 -21 -151 -24 -64
-24 -67 -7 -100 13 -27 19 -66 21 -160 l4 -125 -52 -3 c-62 -4 -61 -8 -65 149
-4 117 -13 139 -57 139 -58 0 -66 -16 -71 -157 l-5 -128 -50 0 -50 0 -3 350
c-1 192 0 356 3 362 8 21 231 17 275 -5z m710 -37 l0 -55 -38 0 c-78 0 -76 8
-82 -322 l-5 -293 -50 0 -50 0 -5 293 c-6 330 -4 322 -82 322 l-38 0 0 55 0
55 175 0 175 0 0 -55z m438 -307 l-3 -363 -50 0 -50 0 -3 350 c-1 192 0 356 3
362 3 8 24 13 55 13 l50 0 -2 -362z m656 346 c3 -9 6 -26 6 -39 0 -50 -8 -55
-80 -55 -93 0 -100 -8 -100 -115 0 -105 8 -115 91 -115 l59 0 0 -55 0 -55 -59
0 c-73 0 -91 -15 -91 -73 0 -83 4 -87 80 -87 79 0 100 -14 100 -63 0 -57 -4
-58 -151 -55 l-134 3 -3 350 c-1 192 0 356 3 362 3 10 40 13 139 13 113 0 135
-2 140 -16z"/>
<path d="M8805 15214 c-28 -30 -27 -24 -65 -283 -34 -225 -32 -256 17 -288 34
-23 152 -22 186 0 51 33 53 58 18 290 -38 243 -45 271 -74 292 -31 22 -55 19
-82 -11z"/>
<path d="M21075 15214 c-28 -30 -27 -24 -65 -283 -34 -225 -32 -256 17 -288
34 -23 152 -22 186 0 51 33 53 58 18 290 -38 243 -45 271 -74 292 -31 22 -55
19 -82 -11z"/>
<path d="M23100 16491 c-59 -18 -89 -42 -111 -88 -22 -45 -24 -61 -27 -273 -5
-322 7 -388 82 -444 24 -19 41 -21 149 -21 140 1 179 13 221 68 40 52 64 133
75 248 25 267 -49 480 -175 510 -47 10 -179 10 -214 0z"/>
<path d="M13589 11891 c-24 -19 -24 -22 -27 -228 -2 -129 1 -218 7 -236 24
-61 113 -54 131 11 13 48 13 366 0 414 -17 58 -66 75 -111 39z"/>
<path d="M12205 11886 c-16 -11 -20 -29 -23 -89 -4 -67 -2 -77 18 -97 18 -18
30 -21 57 -17 41 7 59 28 68 79 16 94 -57 170 -120 124z"/>
<path d="M12895 11886 c-16 -11 -20 -29 -23 -89 -4 -66 -2 -77 17 -96 26 -26
62 -27 92 -2 21 17 24 28 24 91 0 63 -3 74 -24 91 -28 22 -60 24 -86 5z"/>
<path d="M14305 11886 c-16 -11 -20 -29 -23 -89 -4 -67 -2 -77 18 -97 18 -18
30 -21 57 -17 41 7 59 28 68 79 16 94 -57 170 -120 124z"/>
<path d="M15615 11886 c-16 -11 -20 -29 -23 -89 -4 -66 -2 -77 17 -96 26 -26
62 -27 92 -2 21 17 24 28 24 91 0 63 -3 74 -24 91 -28 22 -60 24 -86 5z"/>
</g>
</svg>
